<svg id="logo" xmlns="http://www.w3.org/2000/svg" viewBox="0 0 166.61 166.7"><defs><style>.cls-1,.cls-6{opacity:0.7;}.cls-2{fill:#fff;}.cls-3{fill:red;}.cls-4{fill:#999;}.cls-5,.cls-6{fill:none;stroke:#fff;stroke-miterlimit:10;stroke-width:0.5px;}.cls-5{stroke-dasharray:0.86 0.86;}.cls-6{isolation:isolate;}</style></defs><title>logo</title><g id="background"><g id="black_background"><path d="M80.9,1.8c1.3-2.4,3.5-2.4,4.9,0s3.8,2.6,5.4.3S95,.2,96,2.8s3.4,3,5.3,1,4-1.5,4.7,1.2,3,3.4,5.1,1.7,4.2-.9,4.5,1.8,2.6,3.8,4.9,2.3,4.3-.4,4.3,2.3,2.1,4.1,4.6,2.9,4.3.1,3.9,2.9,1.5,4.3,4.2,3.4,4.2.7,3.5,3.3,1,4.4,3.7,3.9,4.1,1.2,3.1,3.7.4,4.5,3.2,4.4,3.9,1.7,2.6,4.1-.1,4.6,2.6,4.7,3.7,2.2,2.1,4.4-.7,4.5,2,5,3.4,2.6,1.5,4.6-1.3,4.4,1.3,5.2,3,3,.9,4.8-1.8,4.2.7,5.4,2.6,3.4.3,4.9-2.3,3.9,0,5.4,2.2,3.7-.3,4.9-2.8,3.6-.7,5.4,1.7,3.9-.9,4.8-3.2,3.2-1.3,5.2,1.2,4.1-1.5,4.6-3.6,2.8-2,5,.7,4.2-2.1,4.4-3.9,2.3-2.6,4.7.1,4.3-2.6,4.1-4.2,1.8-3.2,4.4-.4,4.3-3.1,3.7-4.4,1.3-3.7,3.9-.9,4.2-3.5,3.3-4.5.7-4.2,3.4-1.4,4-3.9,2.9-4.6.1-4.6,2.9-1.9,3.8-4.3,2.3-4.5-.4-4.9,2.3-2.4,3.5-4.5,1.8-4.4-1-5.1,1.7-2.8,3.2-4.7,1.2-4.3-1.5-5.3,1-3.2,2.8-4.8.6-4.1-2.1-5.4.3-3.5,2.4-4.9,0-3.8-2.6-5.4-.3-3.8,1.9-4.8-.6-3.4-3-5.3-1-4,1.5-4.7-1.2-3-3.4-5.1-1.7-4.2.9-4.5-1.8-2.6-3.8-4.9-2.3-4.3.4-4.3-2.3-2.1-4.1-4.6-2.9-4.3-.1-3.9-2.9-1.5-4.3-4.2-3.4-4.2-.7-3.5-3.3-1-4.4-3.7-3.9-4.1-1.2-3.1-3.7-.4-4.5-3.2-4.4-3.9-1.7-2.6-4.1.1-4.6-2.6-4.7-3.7-2.2-2.1-4.4.7-4.5-2-5-3.4-2.6-1.5-4.6,1.3-4.4-1.3-5.2-3-3-.9-4.8S4.5,92.2,2,91s-2.6-3.4-.3-4.9,2.3-3.9,0-5.4S-.5,77,2,75.8s2.8-3.6.7-5.4-1.7-3.9.9-4.8,3.2-3.2,1.3-5.2-1.2-4.1,1.5-4.6,3.6-2.8,2-5-.7-4.2,2.1-4.4,3.9-2.3,2.6-4.7-.1-4.3,2.6-4.1,4.2-1.8,3.2-4.4.4-4.3,3.1-3.7,4.4-1.3,3.7-3.9.9-4.2,3.5-3.3,4.5-.7,4.2-3.4,1.4-4,3.9-2.9,4.6-.1,4.6-2.9,1.9-3.8,4.3-2.3,4.5.4,4.9-2.3S53.5,5,55.6,6.7,60,7.7,60.7,5s2.8-3.2,4.7-1.2,4.3,1.5,5.3-1,3.2-2.8,4.8-.6S79.6,4.2,80.9,1.8Z" transform="translate(-0.05 0)"/></g></g><g id="small_type"><g id="small_type-2" data-name="small_type" class="cls-1"><path class="cls-2" d="M17.3,59.6h0c-.2,0-.3,0-.4.1a.1.1,0,0,0,.1.1,2.6,2.6,0,0,0,.7-.3,1.47,1.47,0,0,1,1.1-.2.9.9,0,0,1,.6,1.3c-.1.4-.5.8-1.4.4v-.1l.2-.6h.1a.48.48,0,0,0,.4,0c0-.1,0-.1-.1-.1a2.71,2.71,0,0,0-.8.3,1,1,0,0,1-1.1.1,1,1,0,0,1-.6-1.2,1,1,0,0,1,1.4-.6v.1Z" transform="translate(-0.05 0)"/><path class="cls-2" d="M17.4,58.5a1,1,0,0,1-.5-1.3.93.93,0,0,1,1.3-.6l1.6.6a1,1,0,0,1,.5,1.3.86.86,0,0,1-1.2.6Zm1.8-.3h.1c0-.1,0-.1-.1-.1l-1.3-.5h-.1c0,.1,0,.1.1.1Z" transform="translate(-0.05 0)"/><path class="cls-2" d="M21.8,54.6h0l-.3.8h-.1l-2.2-1H19a.1.1,0,0,0,.1.1l2.2,1v.1l-.3.8h-.1l-2.2-1h-.1a.1.1,0,0,0,.1.1l2.2,1v.1l-.3.8h-.1L17.4,56v-.1l.3-.7H18v-.1a.45.45,0,0,1,0-.5c.1-.2.2-.3.4-.3h.1v-.1a.45.45,0,0,1,0-.5.63.63,0,0,1,.8-.3Z" transform="translate(-0.05 0)"/><path class="cls-2" d="M19.6,53.3a1,1,0,0,1-.4-1.4,1.14,1.14,0,0,1,1.5-.5l.3.2v.1l-.4.9v.1l.8.4h.2a.1.1,0,0,0-.1-.1l-.3-.2v-.1l.4-.7h.1l.3.2a.89.89,0,0,1,.4,1.4,1,1,0,0,1-1.5.4Zm.7-.8h0a.31.31,0,0,0,.1-.2c-.3-.2-.4-.2-.4-.1a.1.1,0,0,0,.1.1Z" transform="translate(-0.05 0)"/><path class="cls-2" d="M21,50.6h0c-.1.1-.1.1-.2.1l-.8-.4h0c.1-.1.1-.1,0-.2l-.5-.2v-.1L20,49c0-.1,0,0,.1,0l.4.2h.1l.1-.2.8.4v.1l-.1.2,1.4.7h.1l.1-.2c.3.2.8.4.5,1-.2.3-.5.4-1.1.1Z" transform="translate(-0.05 0)"/><path class="cls-2" d="M20.8,48.9h0l.4-.8h.1l.8.3h.1l-.7-.6h0l.4-.7h0L25.3,50v.1l-.4.7h-.1l-1.2-1h-.1Z" transform="translate(-0.05 0)"/><path class="cls-2" d="M22.4,46.2h.2v-.1a.76.76,0,0,1,.1-.4c.2-.3.5-.4,1.4.1l1.1.7c.8.5.8.9.6,1.2-.1.1-.2.2-.3.2h-.1l.8.5v.1l-.4.7h-.1L22,46.9v-.1Zm2.1,1.2h.2a.1.1,0,0,0-.1-.1l-1.3-.8s-.1-.1-.1,0v.1a.1.1,0,0,0,.1.1Z" transform="translate(-0.05 0)"/><path class="cls-2" d="M23.9,45.5a.91.91,0,0,1-.2-1.4,1,1,0,0,1,1.5-.3l.3.2v.1l-.6.9v.1l.8.5c.1.1.1,0,.2,0a.1.1,0,0,0-.1-.1l-.3-.2v-.1l.5-.6h.1l.3.2a.91.91,0,0,1,.2,1.4,1,1,0,0,1-1.5.2Zm.7-.7h0c.1-.1.1-.1.1-.2-.3-.2-.4-.2-.4-.1a.1.1,0,0,0,.1.1Z" transform="translate(-0.05 0)"/><path class="cls-2" d="M24,42h0l.5-.8h.1l.9.6h.1v-.1a.6.6,0,0,1,.1-.4.51.51,0,0,1,.8-.1l2.4,1.7V43l-.5.7h-.1l-2-1.4c-.1-.1-.1,0-.2,0s0,.1,0,.1l2,1.4v.1l-.5.7h-.1Z" transform="translate(-0.05 0)"/><path class="cls-2" d="M26.9,41.2c-.6-.4-.4-1-.1-1.4a1.11,1.11,0,0,1,1.5-.2l.3.2v.1l-.6.8v.1l.7.6c.1.1.1,0,.2,0v-.2l-.3-.2v-.1l.5-.6h.1l.3.2a.94.94,0,0,1,.1,1.5,1,1,0,0,1-1.5.1Zm.8-.7h0c.1-.1.1-.1.1-.2-.3-.2-.3-.3-.4-.2v.1Z" transform="translate(-0.05 0)"/><path class="cls-2" d="M27.6,38.8h0l.5-.7s.2.1.2,0V38c-.1-.1,0-.2.1-.4h.1l.7.5v.1c-.2.3-.2.5.2.8l1.5,1.2v.1l-.5.7h-.1Z" transform="translate(-0.05 0)"/><path class="cls-2" d="M29.4,38.1a1,1,0,0,1-.1-1.4,1,1,0,0,1,1.5-.1l.3.2v.1l-.7.8v.1l.7.6c.1.1.1.1.2,0v-.2L31,38v-.1l.5-.6h.1l.3.2c.6.5.4,1,0,1.5a.94.94,0,0,1-1.5,0Zm.8-.7h0l.1-.1c-.3-.3-.3-.3-.4-.2v.1Z" transform="translate(-0.05 0)"/><path class="cls-2" d="M110.5,18.4l.1-.3a.93.93,0,0,1,1.3-.4c.6.3.8.8.6,1.2l-.6,1.5a.1.1,0,0,0,.1.1v.1l-.1.3a.68.68,0,0,1-.8.4c-.3-.1-.3-.2-.3-.4v-.1h-.1a.45.45,0,0,1-.5,0c-.2-.1-.5-.4-.2-1l.2-.4a1,1,0,0,1,.9-.5c.5,0,.5,0,.6-.2v-.2c-.1,0-.1,0-.2.2h-.1Zm.6,1.2h0c0-.1-.2-.1-.2.1l-.2.4v.1a.1.1,0,0,0,.1-.1Z" transform="translate(-0.05 0)"/><path class="cls-2" d="M111.7,21.5h0l1.5-3.2h.1l.7.3v.3h.1a.45.45,0,0,1,.5,0,.63.63,0,0,1,.3.8l-1.3,2.6h0l-.7-.4v-.1l1-2.2v-.1a.1.1,0,0,0-.1.1l-1.1,2.2h-.1Z" transform="translate(-0.05 0)"/><path class="cls-2" d="M114.7,23v-.2h-.1a.76.76,0,0,1-.4-.1c-.3-.1-.5-.5,0-1.4l.6-1.1c.4-.8.9-.9,1.1-.7s.2.2.2.3v.1h0l.5-.9h.1l.7.4v.1l-2,4h-.1Zm1-2.3v-.2a.1.1,0,0,0-.1.1l-.7,1.3s-.1.1,0,.1h.1a.1.1,0,0,0,.1-.1Z" transform="translate(-0.05 0)"/><path class="cls-2" d="M118.2,22.2h0c.1-.2.1-.3,0-.4h-.1c-.1.1,0,.4.1.8a1.08,1.08,0,0,1,0,1.1c-.3.4-.7.8-1.4.4a1,1,0,0,1-.2-1.5h.1l.6.3V23c-.1.2-.1.3,0,.4h.1c.1-.1,0-.4-.2-.8a1.45,1.45,0,0,1,.1-1.1.87.87,0,0,1,1.3-.3,1,1,0,0,1,.3,1.5h-.1Z" transform="translate(-0.05 0)"/><path class="cls-2" d="M119.2,22.4a1,1,0,0,1,1.4-.3,1,1,0,0,1,.4,1.4l-.9,1.5a1,1,0,0,1-1.4.3.92.92,0,0,1-.4-1.3Zm0,1.9v.2c0,.1.1,0,.1-.1l.7-1.2V23c-.1,0-.1,0-.1.1Z" transform="translate(-0.05 0)"/><path class="cls-2" d="M122.4,27.6h0l-.8-.4v-.1l1.3-2v-.2a.1.1,0,0,0-.1.1l-1.3,2h-.1l-.7-.5v-.1l1.4-2v-.2H122l-1.4,2h-.1l-.7-.5v-.1l1.9-2.9h.1l.7.4s-.1.3,0,.3h.1a1.09,1.09,0,0,1,.5.1c.2.1.2.3.3.4V24h.1a.9.9,0,0,1,.5.1.52.52,0,0,1,.1.8Z" transform="translate(-0.05 0)"/><path class="cls-2" d="M124,25.6a.91.91,0,0,1,1.4-.2,1,1,0,0,1,.2,1.5l-.2.3h-.1l-.8-.6h-.1l-.6.8c-.1.1,0,.1,0,.2h.2l.2-.3h.1l.6.5v.1l-.2.3a1,1,0,0,1-1.5.2,1,1,0,0,1-.1-1.5Zm.7.7h0c.1.1.1.1.2.1.2-.3.2-.3.2-.4H125Z" transform="translate(-0.05 0)"/><path class="cls-2" d="M126.4,27.4h0c-.1-.1-.1-.1-.1-.2l.5-.7h0l.1.1.3-.4h.1l.7.5v.1l-.3.4v.1c.1.1.2.1.1.2l-.5.7h-.1a.31.31,0,0,0-.2-.1l-1,1.2v.1c.2.1.2.1.2.2-.2.3-.6.7-1.1.4-.3-.2-.4-.6.1-1.1Z" transform="translate(-0.05 0)"/><path class="cls-2" d="M128.1,27.5h0l.7.5v.1l-.5.8V29h0l.7-.6h0l.6.5h0l-3.5,2.9H126l-.6-.5v-.1l1.2-1,.1-.1Z" transform="translate(-0.05 0)"/><path class="cls-2" d="M130.5,29.5v.2h.1c.1,0,.2.1.3.2s.3.6-.3,1.3l-.8.9c-.6.7-1,.6-1.3.4-.1-.1-.2-.2-.2-.3v-.1h0l-.6.7h-.1l-.6-.5v-.1l2.9-3.3h.1Zm-1.6,1.9c-.1.1-.1.1,0,.2h.1l1-1.1s.1-.1,0-.1h-.1a.1.1,0,0,0-.1.1Z" transform="translate(-0.05 0)"/><path class="cls-2" d="M130.9,31.1a1,1,0,0,1,1.4,0,1,1,0,0,1,0,1.5l-.2.3H132l-.7-.7h-.1l-.6.7c-.1.1-.1.1,0,.2h.2l.2-.3h.1l.5.6v.1l-.3.3a.94.94,0,0,1-1.5,0c-.5-.4-.4-1,0-1.5Zm.6.9h0c.1.1.1.2.1.1.3-.3.3-.3.2-.4h-.2Z" transform="translate(-0.05 0)"/><path class="cls-2" d="M134.4,31.8h0l.7.6v.1l-.8.8v.1h.1a.76.76,0,0,1,.4.2.52.52,0,0,1,0,.8l-2.1,2.1h-.1l-.6-.6v-.1l1.8-1.7c.1-.1.1-.1,0-.2s-.1,0-.2,0l-1.8,1.7h-.1l-.6-.6v-.1Z" transform="translate(-0.05 0)"/><path class="cls-2" d="M134.7,34.8a.89.89,0,0,1,1.4.1,1,1,0,0,1-.1,1.5l-.3.2h-.1l-.7-.7h-.1l-.7.6c-.1.1-.1.1,0,.2h.2l.3-.2h.1l.5.6v.1l-.3.3a1,1,0,0,1-1.5-.1,1,1,0,0,1,.2-1.5Zm.5.9h0c.1.1.1.2.1.1.3-.3.3-.3.2-.4h-.2Z" transform="translate(-0.05 0)"/><path class="cls-2" d="M137,35.9h0l.6.6-.1.2h.1c.1,0,.2,0,.4.2V37l-.7.6h-.1c-.2-.2-.4-.2-.8.1L134.9,39h-.1l-.6-.7v-.1Z" transform="translate(-0.05 0)"/><path class="cls-2" d="M137.4,37.8a1,1,0,0,1,1.4.2,1,1,0,0,1-.2,1.5l-.3.2h-.1l-.6-.8h-.1l-.7.6c-.1.1-.1.1,0,.2a.14.14,0,0,0,.2,0l.3-.2h.1l.5.6v.1l-.3.2c-.6.5-1.1.2-1.5-.2a1,1,0,0,1,.2-1.5Zm.4.9h0c.1.2.1.2.1.1.3-.2.3-.3.3-.3H138Z" transform="translate(-0.05 0)"/><path class="cls-2" d="M144.3,118.6l.3.1a.93.93,0,0,1,.3,1.3.86.86,0,0,1-1.3.4l-1.4-.8-.1.1H142l-.3-.2a.61.61,0,0,1,.2-1.1h.1v-.1c0-.1-.1-.3,0-.5s.5-.4,1-.1l.4.2a.82.82,0,0,1,.4,1c-.1.5,0,.5.2.6h.2c0-.1,0-.1-.2-.2v-.1Zm-1.2.5h0c.1,0,.1-.2,0-.2l-.4-.2h-.1v.1Z" transform="translate(-0.05 0)"/><path class="cls-2" d="M141.1,119.4h0l3,1.9v.1l-.4.6s-.3-.1-.3,0v.1c.1.2.1.3-.1.5a.62.62,0,0,1-.9.1l-2.5-1.6h0l.4-.7h.1l2.1,1.3h.2v-.1l-2.1-1.3v-.1Z" transform="translate(-0.05 0)"/><path class="cls-2" d="M139.3,122.2h.2v-.1a.37.37,0,0,1,.1-.3c.2-.2.5-.4,1.3.2l1,.7c.7.5.7,1,.6,1.2s-.2.2-.3.2h-.1l.9.6v.1l-.4.6h-.1l-3.7-2.5v-.1Zm2.1,1.3a.14.14,0,0,0,.2,0v-.1l-1.2-.9s-.1-.1-.1,0v.1a.1.1,0,0,0,.1.1Z" transform="translate(-0.05 0)"/><path class="cls-2" d="M139.5,125.8h0a.76.76,0,0,0,.4.1v-.1c-.1-.1-.4,0-.8,0s-.8.1-1.1-.2a.89.89,0,0,1-.2-1.4c.2-.3.7-.6,1.5,0v.1l-.4.5h-.1a.76.76,0,0,0-.4-.1v.1c.1.1.4,0,.9-.1a1.17,1.17,0,0,1,1.1.2,1,1,0,1,1-1.3,1.4v-.1Z" transform="translate(-0.05 0)"/><path class="cls-2" d="M139.2,126.8a1,1,0,0,1,.1,1.4.91.91,0,0,1-1.4.2l-1.3-1.1a1,1,0,0,1-.1-1.4.91.91,0,0,1,1.4-.2Zm-1.8-.3c-.1,0-.1-.1-.2,0v.1l1.1.9h.2v-.2Z" transform="translate(-0.05 0)"/><path class="cls-2" d="M133.7,129.2h0l.5-.7h.1l1.8,1.6c.1.1.1,0,.2,0v-.2l-1.8-1.6v-.1l.5-.6h.1l1.8,1.6c.1.1.1,0,.2,0V129l-1.9-1.6v-.1l.5-.6h.1l2.6,2.3v.1l-.5.6a1,1,0,0,0-.3-.1v.1a1.09,1.09,0,0,1-.1.5c-.1.2-.3.2-.5.2h-.1v.1a.55.55,0,0,1-.2.5.61.61,0,0,1-.8,0Z" transform="translate(-0.05 0)"/><path class="cls-2" d="M135.5,131.1a1,1,0,0,1,0,1.4,1,1,0,0,1-1.5,0l-.3-.2v-.1l.7-.7v-.1l-.7-.6c-.1-.1-.1-.1-.2,0v.2l.3.3v.1l-.6.5h-.1l-.3-.3a.94.94,0,0,1,0-1.5c.4-.5,1-.4,1.5.1Zm-.9.6h0c-.1.1-.2.1-.1.1.3.3.3.3.4.2v-.2Z" transform="translate(-0.05 0)"/><path class="cls-2" d="M134.7,134.6h0l-.6.7H134l-.8-.8h0v.1a.76.76,0,0,1-.2.4.52.52,0,0,1-.8,0l-2.1-2.1v-.1l.6-.6h.1l1.7,1.8c.1.1.1.1.2,0s0-.1,0-.2L131,132v-.1l.6-.6h.1Z" transform="translate(-0.05 0)"/><path class="cls-2" d="M131.8,134.8a1,1,0,0,1-.1,1.4,1,1,0,0,1-1.5-.1l-.2-.3v-.1l.7-.7v-.1l-.6-.7c-.1-.1-.1-.1-.2,0v.2l.2.3v.1l-.6.5h-.1l-.3-.3a1,1,0,0,1,.1-1.5,1,1,0,0,1,1.5.2Zm-.9.6h0c-.1.1-.2.1-.1.1.3.3.3.3.4.2v-.2Z" transform="translate(-0.05 0)"/><path class="cls-2" d="M130.6,137.1h0l-.6.6-.2-.1v.1c0,.1,0,.2-.2.4h-.1l-.6-.7v-.1c.2-.2.2-.4-.1-.8l-1.3-1.5v-.1l.7-.6h.1Z" transform="translate(-0.05 0)"/><path class="cls-2" d="M128.8,137.5a1,1,0,0,1-.2,1.4,1,1,0,0,1-1.5-.2l-.2-.3v-.1l.8-.6v-.1l-.6-.7c-.1-.1-.1-.1-.2,0a.14.14,0,0,0,0,.2l.2.3v.1l-.6.5h-.1l-.2-.3a.89.89,0,0,1,.2-1.4,1,1,0,0,1,1.5.2Zm-.9.5c0-.1-.1-.1,0,0-.2.1-.2.1-.1.1.2.3.3.3.3.3v-.2Z" transform="translate(-0.05 0)"/><path class="cls-2" d="M55.1,147.7l-.1.3a.93.93,0,0,1-1.3.4c-.6-.3-.8-.8-.6-1.2l.7-1.5a.1.1,0,0,0-.1-.1v-.1l.2-.3a.55.55,0,0,1,.8-.3c.3.1.3.2.3.4v.1h.1a.45.45,0,0,1,.5,0,.7.7,0,0,1,.2,1l-.2.4a1,1,0,0,1-.9.5c-.5,0-.5,0-.6.2v.2c.1,0,.1,0,.2-.2h.1Zm-.6-1.2h0c0,.1.2.1.2,0l.2-.4V146a.1.1,0,0,0-.1.1Z" transform="translate(-0.05 0)"/><path class="cls-2" d="M54,144.6c.1,0,.1.1,0,0l-1.5,3.2h-.1l-.7-.3v-.3h-.1a.45.45,0,0,1-.5,0,.52.52,0,0,1-.2-.8l1.3-2.6h0l.7.4v.1l-1.1,2.2v.1a.1.1,0,0,0,.1-.1l1.1-2.2h.1Z" transform="translate(-0.05 0)"/><path class="cls-2" d="M51.1,143.1v.2h.1a.76.76,0,0,1,.4.1c.3.1.5.5,0,1.4l-.6,1.1c-.4.8-.9.8-1.1.7s-.2-.2-.2-.3v-.1h0l-.5.9h-.1l-.7-.4v-.1l2.1-3.9h.1ZM50,145.3v.2a.1.1,0,0,0,.1-.1l.7-1.3s.1-.1,0-.1h-.1a.1.1,0,0,0-.1.1Z" transform="translate(-0.05 0)"/><path class="cls-2" d="M47,143.4h0c-.1.2-.1.3,0,.4h.1c.1-.1,0-.4-.1-.8a1.42,1.42,0,0,1,.1-1.1,1,1,0,0,1,1.4-.4,1,1,0,0,1,.2,1.5h-.1l-.6-.3v-.1c.1-.2.1-.3,0-.4h-.1c-.1.1,0,.4.1.8a1.45,1.45,0,0,1-.1,1.1.87.87,0,0,1-1.3.3,1,1,0,0,1-.3-1.5h.1Z" transform="translate(-0.05 0)"/><path class="cls-2" d="M46,143.2a.9.9,0,0,1-1.4.2.91.91,0,0,1-.3-1.4l.9-1.4a.9.9,0,0,1,1.4-.2.92.92,0,0,1,.4,1.3Zm.1-1.8v-.2H46l-.8,1.2v.2h.1Z" transform="translate(-0.05 0)"/><path class="cls-2" d="M43,138h0l.7.4v.1l-1.4,2c-.1.1,0,.1,0,.2h.2l1.4-2H44l.7.5v.1l-1.4,2c-.1.1,0,.1,0,.2h.1l1.4-2h.1l.7.5v.1l-2,2.9h-.1l-.6-.5s.1-.3,0-.3h-.1a1.09,1.09,0,0,1-.5-.1.4.4,0,0,1-.2-.4v-.1H42a.9.9,0,0,1-.5-.1.62.62,0,0,1-.1-.8Z" transform="translate(-0.05 0)"/><path class="cls-2" d="M41.3,139.9c-.4.6-1,.4-1.4.1a1.11,1.11,0,0,1-.2-1.5l.2-.3H40l.8.6h.1l.6-.7c.1-.1,0-.1,0-.2h-.2l-.2.3H41l-.6-.5v-.1l.2-.3a.94.94,0,0,1,1.5-.1,1,1,0,0,1,.1,1.5Zm-.7-.7h0c-.1-.1-.1-.1-.2-.1-.2.3-.3.3-.2.4h.1Z" transform="translate(-0.05 0)"/><path class="cls-2" d="M37.7,139.5h0L37,139v-.1l.7-.8V138h-.1a.6.6,0,0,1-.4-.1.52.52,0,0,1,0-.8l1.9-2.3h.1l.6.5v.1l-1.6,1.9c-.1.1,0,.1,0,.2h.2l1.6-1.9h.1l.7.5v.1Z" transform="translate(-0.05 0)"/><path class="cls-2" d="M37.2,136.6a.89.89,0,0,1-1.4,0,1.1,1.1,0,0,1-.1-1.5l.2-.3H36l.7.7h.1l.6-.7c.1-.1.1-.1,0-.2h-.2l-.2.3h-.1l-.5-.5v-.1l.3-.3a.94.94,0,0,1,1.5,0c.5.4.4,1,0,1.5Zm-.6-.8h0l-.1-.1c-.3.3-.3.3-.2.4h.2Z" transform="translate(-0.05 0)"/><path class="cls-2" d="M34.8,135.7h0l-.7-.6.1-.2h-.1c-.1.1-.2,0-.4-.2v-.1l.6-.6h.1c.2.2.4.2.8-.2l1.3-1.4h.1l.6.6v.1Z" transform="translate(-0.05 0)"/><path class="cls-2" d="M34.3,133.9a1,1,0,0,1-1.4,0,1,1,0,0,1,0-1.5l.3-.3h.1l.7.7h.1l.7-.7c.1-.1.1-.1,0-.2h-.2l-.3.3h-.1l-.5-.6v-.1l.3-.3a1,1,0,0,1,1.5.1c.5.5.4,1-.1,1.5Zm-.6-.8h0c-.1-.1-.1-.2-.1-.1-.3.3-.3.3-.2.4h.2Z" transform="translate(-0.05 0)"/><path class="cls-2" d="M32.1,131.7h0a.31.31,0,0,1,.1.2l-.6.6h0l-.1-.1-.4.4H31l-.6-.6v-.1l.4-.3v-.1c-.1-.1-.1-.1-.1-.2l.6-.6h.1c.1.1.1.2.2.1l1.2-1.1v-.1c-.1-.2-.2-.2-.1-.2.3-.2.7-.6,1.1-.2.2.3.3.6-.3,1.1Z" transform="translate(-0.05 0)"/><path class="cls-2" d="M31.1,130.7a.91.91,0,0,1-1.4-.2,1,1,0,0,1,0-1.4L31,128a.91.91,0,0,1,1.4.2,1,1,0,0,1,0,1.4Zm.6-1.7c.1,0,.1-.1,0-.2h-.2l-1.1.9a.14.14,0,0,0,0,.2h.2Z" transform="translate(-0.05 0)"/><path class="cls-2" d="M29.6,129a1,1,0,0,1-1.4-.2.9.9,0,0,1,.1-1.4l1.3-1.1a.91.91,0,0,1,1.4.2.9.9,0,0,1-.1,1.4Zm.7-1.7c.1,0,.1-.1,0-.2s-.1,0-.2,0L29,128c-.1,0-.1.1,0,.2s.1,0,.2,0Z" transform="translate(-0.05 0)"/><path class="cls-2" d="M26.8,128.4h0l-.7-.8v-.1l2.7-1.9h.1l.4.6v.1Zm2.8-3.5h0l.5.6v.1l-.6.5h-.1l-.5-.6v-.1Z" transform="translate(-0.05 0)"/></g></g><g id="large_type"><g id="red_white"><path class="cls-3" d="M24.8,76.2c-.2-1-.2-1.2-1-1.3q-.45,0-.6-.6a.75.75,0,0,1,.6-1l5.3-1.2,3.8,17c.2,1,.2,1.2,1,1.3q.45,0,.6.6a.75.75,0,0,1-.6,1l-5.7,1.3a.76.76,0,0,1-.9-.7c-.1-.4,0-.7.3-.8.6-.5.6-.6.4-1.6Zm5.1-4.3H30a6.82,6.82,0,0,1,4-.1,5,5,0,0,1,3,3.9c.7,3.1-.5,4.7-2.4,5.8v.1c1.9,0,3.7.3,4.4,3.1l.5,2.4c.1.2.1.8.4.7s.2-.9.7-1c.3-.1.7.3.8.6a4.23,4.23,0,0,1-.6,2.5,2.92,2.92,0,0,1-2.1,1.5,2.62,2.62,0,0,1-2.5-.6,6.1,6.1,0,0,1-1.6-3.2l-.4-1.8c-.3-1.2-.6-2.7-1.9-2.6l-.4-1.6c1.1-.4,1-1.3.7-2.6L32,75.7c-.3-1.3-.7-1.9-1.8-2.2Z" transform="translate(-0.05 0)"/><path class="cls-3" d="M38.8,69.9l5.3-1.2,4.4,20L43.3,90a.76.76,0,0,1-.9-.7c-.1-.4,0-.7.3-.8.6-.5.6-.6.4-1.6L40,72.9c-.2-1-.2-1.2-1-1.3q-.45,0-.6-.6C38.1,70.2,38.8,70,38.8,69.9ZM45,68.6l4.5-1L50.7,73a.69.69,0,0,1-.5.8c-.3.1-.5-.2-.7-.5-1-2.1-2.3-3.1-4.2-3.1Zm2,8.9c.8-.5.9-1.6.9-2.7,0-.5,0-.9.4-1,.6-.1.7.8.8,1.1l1.3,5.8c0,.2.4,1.2-.3,1.3-.4.1-.6-.3-.8-.7-.4-1-1-1.9-1.9-2ZM49.1,87c1.6-.6,2.5-2.4,2.6-4.6.1-.4.1-.9.4-1,.6-.1.8.7.8.8l1.2,5.4-4.6,1Z" transform="translate(-0.05 0)"/><path class="cls-3" d="M61.6,85.9,56.5,87c-.4.1-1,.2-1.1-.6-.1-.4,0-.7.3-.8.6-.5.6-.6.4-1.6L53,70c-.1-.4-.2-1.1-.6-1.2s-.8-.1-1-.8.3-.9.7-1l5.1-1.1ZM58,65.7c3.4-.8,7,1.7,8.7,8.6,1.6,6.2-1,10.7-4.3,11.5l-.3-1.6c1.2-.5.9-2,.7-3L60.3,69.8c-.2-1-.6-2.5-1.9-2.5Z" transform="translate(-0.05 0)"/><path class="cls-2" d="M76.8,82.5l-2.4.5L67,66.4c-.2-.5-.3-.7-.7-.8a.84.84,0,0,1-.7-.7c-.2-.9.6-1.1,1.1-1.2l4.7-1c.4-.1,1.1-.3,1.3.5s-.8.9-.5,1.9c.1.2.1.4.2.6l4.2,9.4Zm.2-21,5.6,12.8.2,6.9-2.4.5L75,69.4,74.8,62Zm4.3,7.6-.2-4.3a4.1,4.1,0,0,0-.1-1.1c-.3-1.4-1.5-.9-1.7-1.9a.75.75,0,0,1,.6-.9l2.6-.6c.4-.1.8-.1,1,.6.1.4,0,.5-.3.8-.9.8-.9,1.8-.9,3.2l.2,7.1h0Z" transform="translate(-0.05 0)"/><path class="cls-2" d="M94.6,75.4c.2,1,.2,1.2,1,1.3q.45,0,.6.6a.75.75,0,0,1-.6,1l-5.7,1.3a.76.76,0,0,1-.9-.7c-.1-.4,0-.7.3-.8.6-.5.6-.6.4-1.6l-3.1-14c-.2-1-.2-1.2-1-1.3q-.45,0-.6-.6a.75.75,0,0,1,.6-1l5.7-1.3a.76.76,0,0,1,.9.7c.1.4,0,.7-.3.8-.6.5-.6.6-.4,1.6Zm1.2-6.9-1.8.4-.3-1.6,1.8-.4-1.3-6.1c-.2-1-.2-1.2-1-1.3q-.45,0-.6-.6a.75.75,0,0,1,.6-1l5.7-1.3a.76.76,0,0,1,.9.7c.1.4,0,.7-.3.8-.6.5-.6.6-.4,1.6l3.1,14c.2,1,.2,1.2,1,1.3.3,0,.5.3.6.6a.75.75,0,0,1-.6,1l-5.7,1.3a.76.76,0,0,1-.9-.7c-.1-.4,0-.7.3-.8.6-.5.6-.6.4-1.6Z" transform="translate(-0.05 0)"/><path class="cls-2" d="M111.4,71.7c.2,1,.2,1.2,1,1.3q.45,0,.6.6a.75.75,0,0,1-.6,1l-5.7,1.3a.76.76,0,0,1-.9-.7c-.1-.4,0-.7.3-.8.6-.5.6-.6.4-1.6l-3.1-14c-.2-1-.2-1.2-1-1.3q-.45,0-.6-.6a.75.75,0,0,1,.6-1l5.7-1.3a.76.76,0,0,1,.9.7c.1.4,0,.7-.3.8-.6.5-.6.6-.4,1.6Z" transform="translate(-0.05 0)"/><path class="cls-2" d="M110.1,54.1l2.9-.6.3,1.6c-.8,1.2-.7,3.1-.6,4.5.1.6.1,1.3-.4,1.4a.7.7,0,0,1-.8-.6Zm3.8-.8,4.9-1.1,3.8,17c.2,1,.2,1.2,1,1.3q.45,0,.6.6a.75.75,0,0,1-.6,1l-5.7,1.3a.76.76,0,0,1-.9-.7c-.1-.4,0-.7.3-.8.6-.5.6-.6.4-1.6ZM124,57.6c0,.1.1.8-.5.9s-.8-.5-1-1.1c-.5-1.4-1.2-3.1-2.4-3.8l-.3-1.6,2.9-.6Z" transform="translate(-0.05 0)"/><path class="cls-2" d="M124.1,51l5.3-1.2,4.4,20L128.5,71a.76.76,0,0,1-.9-.7c-.1-.4,0-.7.3-.8.6-.5.6-.6.4-1.6l-3.1-14c-.2-1-.2-1.2-1-1.3q-.45,0-.6-.6C123.4,51.2,124,51,124.1,51Zm6.2-1.3,4.5-1,1.2,5.4a.69.69,0,0,1-.5.8c-.3.1-.5-.2-.7-.5-1-2.1-2.3-3.1-4.2-3.1Zm2,8.9c.8-.5.9-1.6.9-2.7,0-.5,0-.9.4-1,.6-.1.7.8.8,1.1l1.3,5.8c0,.2.4,1.2-.3,1.3-.4.1-.6-.3-.8-.7-.4-1-1-1.9-1.9-2Zm2.1,9.5c1.6-.6,2.5-2.4,2.6-4.6.1-.4.1-.9.4-1,.6-.1.8.7.8.8l1.2,5.4-4.6,1Z" transform="translate(-0.05 0)"/></g><g id="and_true"><path class="cls-4" d="M38.3,102.2a1.7,1.7,0,0,0-.1.7,4.17,4.17,0,0,0,.2.6l2.5,3.6c.6.8.7.7,1.2.6l.7,1c-2.9,3.3-6.5.7-7.1-2.3a5.4,5.4,0,0,1,1.8-5.2Zm-.2-1.7a7.44,7.44,0,0,1-1.2-2.9c-.5-2.4.9-4.4,2.5-4.7l.6-.1.3,1.5a1.18,1.18,0,0,0-.3,1.2,5.17,5.17,0,0,0,.6,1.3l6.3,9.2c.3.4.5.8.9.9s.4.2.4.5a.69.69,0,0,1-.4.8L44,109Zm2.6-7.7c1-.1,2.1,1.1,2.4,2.4a4,4,0,0,1-.6,3.1l-.7-1a2.2,2.2,0,0,0,.3-1.8,1.92,1.92,0,0,0-1.2-1.4Zm4.1,8.8a2.44,2.44,0,0,0,0-1.2c-.2-.8-.6-1-.7-1.4s.5-.9.8-1c.5-.1.8.6,1,1.2a5.57,5.57,0,0,1-.4,3.4Z" transform="translate(-0.05 0)"/><path class="cls-2" d="M45.8,91.2l3.9-.9.5,2.1c-1.1,1.6-1,4.1-.8,6,.1.8.2,1.8-.6,1.9s-1.1-.7-1.1-.8Zm5.1-1.1,6.6-1.5,5,22.8c.3,1.3.3,1.5,1.3,1.7a1,1,0,0,1,.8.8,1,1,0,0,1-.7,1.3l-7.6,1.7a1.07,1.07,0,0,1-1.2-.9,1,1,0,0,1,.4-1.1c.9-.6.8-.8.5-2.1Zm13.5,5.7c0,.1.1,1.1-.7,1.2s-1.1-.7-1.3-1.5c-.7-1.8-1.6-4.1-3.3-5.1l-.5-2.1,3.9-.9Z" transform="translate(-0.05 0)"/><path class="cls-2" d="M66.3,90.9c-.3-1.4-.3-1.6-1.3-1.8a1,1,0,0,1-.8-.8,1,1,0,0,1,.7-1.3L72,85.4l5,22.8c.3,1.3.3,1.5,1.3,1.7a1,1,0,0,1,.8.8,1,1,0,0,1-.7,1.3l-7.6,1.7a1.07,1.07,0,0,1-1.2-.9,1,1,0,0,1,.4-1.1c.9-.6.8-.8.5-2.1Zm6.9-5.8h.1c1.7-.4,3.6-.9,5.4-.2,2.1.8,3.4,2.5,4,5.3,1,4.1-.7,6.3-3.2,7.8v.1c2.5-.1,5,.4,5.9,4.1l.7,3.1c.1.3.1,1.1.5,1s.3-1.2.9-1.3c.3-.1.9.4,1,.9a6,6,0,0,1-.8,3.3,4.09,4.09,0,0,1-2.7,2,3.63,3.63,0,0,1-3.4-.8,8,8,0,0,1-2.1-4.3l-.5-2.4c-.4-1.6-.8-3.6-2.5-3.5L76.1,98c1.4-.5,1.3-1.7.9-3.5l-1-4.3c-.4-1.8-.9-2.6-2.4-2.9Z" transform="translate(-0.05 0)"/><path class="cls-2" d="M100.7,107.7c-2.1.5-3.8.8-5.9-.2-2.8-1.3-3.4-2.5-3.8-4.3l-3.8-17c-.3-1.3-.3-1.5-1.3-1.7a1,1,0,0,1-.8-.8,1,1,0,0,1,.7-1.3l7.6-1.7a1.07,1.07,0,0,1,1.2.9,1,1,0,0,1-.4,1.1c-.9.6-.8.8-.5,2.1L97.5,102c.1.4.5,3.2,2.7,3.6Zm0-22.7c-1.4-4.4-2.8-2.6-3.2-4.1-.2-1.1.9-1.3,1.2-1.3l3.1-.7c.3-.1,1.4-.4,1.6.7.3,1.5-1.7.5-1.1,5.1l3,13.5c1.1,6-1.6,8.8-3.4,9.2l-.5-2.1c2.2-1.5,2.8-3.6,2.3-6.8Z" transform="translate(-0.05 0)"/><path class="cls-2" d="M106,77.9l7.1-1.6L119,103l-7.1,1.6a1.07,1.07,0,0,1-1.2-.9,1,1,0,0,1,.4-1.1c.9-.6.8-.8.5-2.1l-4.2-18.7c-.3-1.3-.3-1.5-1.3-1.7a1,1,0,0,1-.8-.8C105,78.1,105.9,77.9,106,77.9Zm8.3-1.9,6-1.3,1.6,7.3c0,.2.2.9-.6,1-.5.1-.7-.2-.9-.7-1.3-2.7-3.1-4.2-5.6-4.2ZM117,88c1-.6,1.2-2.2,1.2-3.6,0-.6,0-1.2.6-1.4.8-.2,1,1.1,1,1.4l1.7,7.7c.1.3.5,1.5-.3,1.7-.6.1-.9-.4-1.1-1-.5-1.3-1.4-2.6-2.6-2.7Zm2.8,12.7c2.1-.8,3.3-3.2,3.4-6.2.1-.6.1-1.2.6-1.3.9-.2,1,.9,1,1l1.6,7.2-6.2,1.4Z" transform="translate(-0.05 0)"/></g></g><g id="stroke_badges"><g id="dashes" class="cls-1"><circle class="cls-5" cx="83.48" cy="83.36" r="76.9"/></g><circle id="ring" class="cls-6" cx="83.48" cy="83.36" r="74.9"/></g></svg>