<?xml version="1.0" encoding="utf-8"?>
<!-- Generator: Adobe Illustrator 23.0.1, SVG Export Plug-In . SVG Version: 6.00 Build 0)  -->
<svg version="1.1" id="logo" xmlns="http://www.w3.org/2000/svg" xmlns:xlink="http://www.w3.org/1999/xlink" x="0px" y="0px"
	 viewBox="0 0 166.7 167" style="enable-background:new 0 0 166.7 167;" xml:space="preserve">
<style type="text/css">
	.st0{opacity:0.7;}
	.st1{fill:#FFFFFF;}
	.st2{fill:#FF0000;}
	.st3{fill:#999999;}
	.st4{fill:none;stroke:#FFFFFF;stroke-width:0.5;stroke-miterlimit:10;stroke-dasharray:0.8597,0.8597;}
	.st5{opacity:0.7;fill:none;stroke:#FFFFFF;stroke-width:0.5;stroke-miterlimit:10;enable-background:new    ;}
</style>
<g id="background">
	<g id="black_x5F_background">
		<path d="M80.9,1.8c1.3-2.4,3.5-2.4,4.9,0c1.3,2.4,3.8,2.6,5.4,0.3C92.8-0.1,95,0.2,96,2.8s3.4,3,5.3,1s4-1.5,4.7,1.2
			s3,3.4,5.1,1.7s4.2-0.9,4.5,1.8c0.4,2.7,2.6,3.8,4.9,2.3s4.3-0.4,4.3,2.3c0,2.8,2.1,4.1,4.6,2.9c2.5-1.2,4.3,0.1,3.9,2.9
			c-0.3,2.7,1.5,4.3,4.2,3.4c2.6-0.8,4.2,0.7,3.5,3.3c-0.7,2.7,1,4.4,3.7,3.9s4.1,1.2,3.1,3.7c-1,2.6,0.4,4.5,3.2,4.4
			c2.8-0.2,3.9,1.7,2.6,4.1c-1.3,2.4-0.1,4.6,2.6,4.7c2.7,0.2,3.7,2.2,2.1,4.4c-1.6,2.2-0.7,4.5,2,5s3.4,2.6,1.5,4.6
			s-1.3,4.4,1.3,5.2c2.6,0.9,3,3,0.9,4.8s-1.8,4.2,0.7,5.4c2.5,1.2,2.6,3.4,0.3,4.9s-2.3,3.9,0,5.4s2.2,3.7-0.3,4.9
			c-2.5,1.2-2.8,3.6-0.7,5.4s1.7,3.9-0.9,4.8c-2.6,0.9-3.2,3.2-1.3,5.2s1.2,4.1-1.5,4.6s-3.6,2.8-2,5s0.7,4.2-2.1,4.4
			c-2.8,0.2-3.9,2.3-2.6,4.7c1.3,2.4,0.1,4.3-2.6,4.1c-2.8-0.2-4.2,1.8-3.2,4.4c1,2.6-0.4,4.3-3.1,3.7c-2.7-0.5-4.4,1.3-3.7,3.9
			c0.7,2.7-0.9,4.2-3.5,3.3c-2.6-0.8-4.5,0.7-4.2,3.4s-1.4,4-3.9,2.9c-2.5-1.2-4.6,0.1-4.6,2.9c0,2.8-1.9,3.8-4.3,2.3
			c-2.3-1.5-4.5-0.4-4.9,2.3s-2.4,3.5-4.5,1.8s-4.4-1-5.1,1.7s-2.8,3.2-4.7,1.2c-1.9-2-4.3-1.5-5.3,1c-1,2.6-3.2,2.8-4.8,0.6
			c-1.6-2.2-4.1-2.1-5.4,0.3c-1.3,2.4-3.5,2.4-4.9,0c-1.3-2.4-3.8-2.6-5.4-0.3c-1.6,2.2-3.8,1.9-4.8-0.6c-1-2.6-3.4-3-5.3-1
			s-4,1.5-4.7-1.2s-3-3.4-5.1-1.7s-4.2,0.9-4.5-1.8c-0.4-2.7-2.6-3.8-4.9-2.3c-2.3,1.5-4.3,0.4-4.3-2.3c0-2.8-2.1-4.1-4.6-2.9
			c-2.5,1.2-4.3-0.1-3.9-2.9c0.3-2.7-1.5-4.3-4.2-3.4c-2.6,0.8-4.2-0.7-3.5-3.3c0.7-2.7-1-4.4-3.7-3.9s-4.1-1.2-3.1-3.7
			c1-2.6-0.4-4.5-3.2-4.4c-2.8,0.2-3.9-1.7-2.6-4.1s0.1-4.6-2.6-4.7c-2.7-0.2-3.7-2.2-2.1-4.4c1.6-2.2,0.7-4.5-2-5s-3.4-2.6-1.5-4.6
			s1.3-4.4-1.3-5.2c-2.6-0.9-3-3-0.9-4.8S4.5,92.2,2,91c-2.5-1.2-2.6-3.4-0.3-4.9s2.3-3.9,0-5.4S-0.5,77,2,75.8
			c2.5-1.2,2.8-3.6,0.7-5.4S1,66.5,3.6,65.6s3.2-3.2,1.3-5.2s-1.2-4.1,1.5-4.6s3.6-2.8,2-5s-0.7-4.2,2.1-4.4
			c2.7-0.2,3.9-2.3,2.6-4.7s-0.1-4.3,2.6-4.1c2.8,0.2,4.2-1.8,3.2-4.4s0.4-4.3,3.1-3.7c2.7,0.5,4.4-1.3,3.7-3.9
			c-0.7-2.7,0.9-4.2,3.5-3.3c2.6,0.8,4.5-0.7,4.2-3.4c-0.3-2.7,1.4-4,3.9-2.9c2.5,1.2,4.6-0.1,4.6-2.9s1.9-3.8,4.3-2.3
			c2.3,1.5,4.5,0.4,4.9-2.3s2.4-3.5,4.5-1.8s4.4,1,5.1-1.7c0.7-2.7,2.8-3.2,4.7-1.2s4.3,1.5,5.3-1c1-2.6,3.2-2.8,4.8-0.6
			C77.1,4.4,79.6,4.2,80.9,1.8z"/>
	</g>
</g>
<g id="small_x5F_type">
	<g id="small_x5F_type_1_" class="st0">
		<path class="st1" d="M17.3,59.6L17.3,59.6c-0.2,0-0.3,0-0.4,0.1c0,0,0,0.1,0.1,0.1s0.3-0.1,0.7-0.3c0.4-0.2,0.7-0.3,1.1-0.2
			c0.5,0.2,0.9,0.6,0.6,1.3C19.3,61,18.9,61.4,18,61c0,0,0,0,0-0.1l0.2-0.6c0,0,0,0,0.1,0c0.2,0.1,0.4,0,0.4,0c0-0.1,0-0.1-0.1-0.1
			s-0.4,0.1-0.8,0.3c-0.3,0.2-0.6,0.3-1.1,0.1s-0.7-0.7-0.6-1.2c0.2-0.7,0.9-0.8,1.4-0.6c0,0,0,0,0,0.1L17.3,59.6z"/>
		<path class="st1" d="M17.4,58.5c-0.5-0.2-0.7-0.7-0.5-1.3s0.7-0.8,1.3-0.6l1.6,0.6c0.5,0.2,0.7,0.7,0.5,1.3s-0.7,0.8-1.2,0.6
			L17.4,58.5z M19.2,58.2c0.1,0,0.1,0,0.1,0C19.3,58.1,19.3,58.1,19.2,58.2l-1.3-0.6c-0.1,0-0.1,0-0.1,0c0,0.1,0,0.1,0.1,0.1
			L19.2,58.2z"/>
		<path class="st1" d="M21.8,54.6C21.9,54.6,21.9,54.6,21.8,54.6l-0.3,0.8c0,0,0,0-0.1,0l-2.2-1c-0.1,0-0.1,0-0.2,0
			c0,0,0,0.1,0.1,0.1l2.2,1c0,0,0,0,0,0.1L21,56.4c0,0,0,0-0.1,0l-2.2-1c-0.1,0-0.1,0-0.1,0s0,0.1,0.1,0.1l2.2,1c0,0,0,0,0,0.1
			l-0.3,0.8c0,0,0,0-0.1,0L17.4,56c0,0,0,0,0-0.1l0.3-0.7H18c0,0,0,0,0-0.1c-0.1-0.1-0.1-0.3,0-0.5s0.2-0.3,0.4-0.3
			c0.1,0,0.1,0,0.1,0v-0.1c-0.1-0.1-0.1-0.3,0-0.5c0.1-0.3,0.5-0.4,0.8-0.3L21.8,54.6z"/>
		<path class="st1" d="M19.6,53.3C19,53,19,52.4,19.2,51.9c0.3-0.6,0.9-0.7,1.5-0.5l0.3,0.2c0,0,0,0,0,0.1l-0.4,0.9c0,0,0,0,0,0.1
			l0.8,0.4c0.1,0,0.1,0,0.2,0c0,0,0-0.1-0.1-0.1l-0.3-0.2c0,0,0,0,0-0.1l0.4-0.7h0.1l0.3,0.2c0.7,0.3,0.7,0.9,0.4,1.4
			c-0.3,0.6-0.9,0.7-1.5,0.4L19.6,53.3z M20.3,52.5L20.3,52.5c0.1-0.1,0.1-0.2,0.1-0.2c-0.3-0.2-0.4-0.2-0.4-0.1c0,0,0,0.1,0.1,0.1
			L20.3,52.5z"/>
		<path class="st1" d="M21,50.6L21,50.6c-0.1,0.1-0.1,0.1-0.2,0.1L20,50.3l0,0c0.1-0.1,0.1-0.1,0-0.2l-0.5-0.2c0,0,0,0,0-0.1L20,49
			c0-0.1,0,0,0.1,0l0.4,0.2h0.1c0.1-0.2,0.1-0.2,0.1-0.2l0.8,0.4c0,0,0,0,0,0.1c-0.1,0.2-0.1,0.2-0.1,0.2l1.4,0.7h0.1
			c0.1-0.2,0.1-0.2,0.1-0.2c0.3,0.2,0.8,0.4,0.5,1c-0.2,0.3-0.5,0.4-1.1,0.1L21,50.6z"/>
		<path class="st1" d="M20.8,48.9L20.8,48.9l0.4-0.8c0,0,0,0,0.1,0l0.8,0.3c0,0,0,0,0.1,0l0,0l-0.7-0.6l0,0l0.4-0.7l0,0l3.4,2.9
			c0,0,0,0,0,0.1l-0.4,0.7c0,0,0,0-0.1,0l-1.2-1c0,0,0,0-0.1,0L20.8,48.9z"/>
		<path class="st1" d="M22.4,46.2h0.2c0,0,0,0,0-0.1s0-0.2,0.1-0.4c0.2-0.3,0.5-0.4,1.4,0.1l1.1,0.7c0.8,0.5,0.8,0.9,0.6,1.2
			c-0.1,0.1-0.2,0.2-0.3,0.2h-0.1l0,0l0.8,0.5v0.1l-0.4,0.7c0,0,0,0-0.1,0L22,46.9v-0.1L22.4,46.2z M24.5,47.4c0.1,0,0.2,0,0.2,0
			s0-0.1-0.1-0.1l-1.3-0.8c0,0-0.1-0.1-0.1,0v0.1c0,0,0,0.1,0.1,0.1L24.5,47.4z"/>
		<path class="st1" d="M23.9,45.5c-0.6-0.4-0.5-1-0.2-1.4c0.4-0.6,1-0.6,1.5-0.3l0.3,0.2c0,0,0,0,0,0.1L24.9,45c0,0,0,0,0,0.1
			l0.8,0.5c0.1,0.1,0.1,0,0.2,0c0,0,0-0.1-0.1-0.1l-0.3-0.2c0,0,0,0,0-0.1l0.5-0.6h0.1l0.3,0.2c0.6,0.4,0.5,1,0.2,1.4
			c-0.4,0.5-0.9,0.6-1.5,0.2L23.9,45.5z M24.6,44.8C24.6,44.8,24.7,44.8,24.6,44.8c0.1-0.1,0.1-0.1,0.1-0.2
			c-0.3-0.2-0.4-0.2-0.4-0.1c0,0,0,0.1,0.1,0.1L24.6,44.8z"/>
		<path class="st1" d="M24,42C24,41.9,24,41.9,24,42l0.5-0.8c0,0,0,0,0.1,0l0.9,0.6h0.1c0,0,0,0,0-0.1s0-0.3,0.1-0.4
			c0.1-0.2,0.5-0.4,0.8-0.1l2.4,1.7c0,0,0,0,0,0.1l-0.5,0.7c0,0,0,0-0.1,0l-2-1.4c-0.1-0.1-0.1,0-0.2,0s0,0.1,0,0.1l2,1.4
			c0,0,0,0,0,0.1l-0.5,0.7h-0.1L24,42z"/>
		<path class="st1" d="M26.9,41.2c-0.6-0.4-0.4-1-0.1-1.4c0.4-0.5,1.1-0.5,1.5-0.2l0.3,0.2v0.1L28,40.7c0,0,0,0,0,0.1l0.7,0.6
			c0.1,0.1,0.1,0,0.2,0c0,0,0-0.1,0-0.2L28.6,41c0,0,0,0,0-0.1l0.5-0.6h0.1l0.3,0.2c0.6,0.5,0.5,1,0.1,1.5s-1,0.5-1.5,0.1L26.9,41.2
			z M27.7,40.5L27.7,40.5c0.1-0.1,0.1-0.1,0.1-0.2c-0.3-0.2-0.3-0.3-0.4-0.2v0.1L27.7,40.5z"/>
		<path class="st1" d="M27.6,38.8C27.6,38.7,27.6,38.7,27.6,38.8l0.5-0.7c0,0,0.2,0.1,0.2,0c0,0,0,0,0-0.1c-0.1-0.1,0-0.2,0.1-0.4
			c0,0,0,0,0.1,0l0.7,0.5c0,0,0,0,0,0.1C29,38.5,29,38.7,29.4,39l1.5,1.2v0.1L30.4,41c0,0,0,0-0.1,0L27.6,38.8z"/>
		<path class="st1" d="M29.4,38.1c-0.5-0.5-0.4-1-0.1-1.4c0.4-0.5,1.1-0.5,1.5-0.1l0.3,0.2v0.1l-0.7,0.8c0,0,0,0,0,0.1l0.7,0.6
			c0.1,0.1,0.1,0.1,0.2,0c0,0,0-0.1,0-0.2L31,38c0,0,0,0,0-0.1l0.5-0.6h0.1l0.3,0.2c0.6,0.5,0.4,1,0,1.5s-1,0.5-1.5,0L29.4,38.1z
			 M30.2,37.4L30.2,37.4c0.1-0.1,0.1-0.1,0.1-0.1C30,37,30,37,29.9,37.1v0.1L30.2,37.4z"/>
		<path class="st1" d="M110.5,18.4c0,0,0,0,0.1-0.3c0.2-0.4,0.7-0.7,1.3-0.4c0.6,0.3,0.8,0.8,0.6,1.2l-0.6,1.5c0,0,0,0.1,0.1,0.1
			c0,0,0,0,0,0.1l-0.1,0.3c-0.1,0.3-0.5,0.5-0.8,0.4s-0.3-0.2-0.3-0.4c0-0.1,0-0.1,0-0.1s0,0-0.1,0c-0.1,0.1-0.3,0.1-0.5,0
			s-0.5-0.4-0.2-1l0.2-0.4c0.2-0.4,0.6-0.5,0.9-0.5c0.5,0,0.5,0,0.6-0.2c0-0.1,0-0.1,0-0.2c-0.1,0-0.1,0-0.2,0.2c0,0,0,0-0.1,0
			L110.5,18.4z M111.1,19.6L111.1,19.6c0-0.1-0.2-0.1-0.2,0.1l-0.2,0.4c0,0.1,0,0.1,0,0.1s0.1,0,0.1-0.1L111.1,19.6z"/>
		<path class="st1" d="M111.7,21.5L111.7,21.5l1.5-3.2c0,0,0,0,0.1,0l0.7,0.3v0.3c0,0,0,0,0.1,0c0.2-0.1,0.3-0.1,0.5,0
			c0.3,0.1,0.4,0.5,0.3,0.8l-1.3,2.6l0,0l-0.7-0.4c0,0,0,0,0-0.1l1-2.2c0-0.1,0-0.1,0-0.1s-0.1,0-0.1,0.1l-1.1,2.2c0,0,0,0-0.1,0
			L111.7,21.5z"/>
		<path class="st1" d="M114.7,23v-0.2c0,0,0,0-0.1,0s-0.2,0-0.4-0.1c-0.3-0.1-0.5-0.5,0-1.4l0.6-1.1c0.4-0.8,0.9-0.9,1.1-0.7
			c0.1,0.1,0.2,0.2,0.2,0.3v0.1l0,0l0.5-0.9c0,0,0,0,0.1,0l0.7,0.4c0,0,0,0,0,0.1l-2,4h-0.1L114.7,23z M115.7,20.7
			c0-0.1,0-0.2,0-0.2s-0.1,0-0.1,0.1l-0.7,1.3c0,0-0.1,0.1,0,0.1c0,0,0,0,0.1,0c0,0,0.1,0,0.1-0.1L115.7,20.7z"/>
		<path class="st1" d="M118.2,22.2L118.2,22.2c0.1-0.2,0.1-0.3,0-0.4h-0.1c-0.1,0.1,0,0.4,0.1,0.8c0.2,0.4,0.2,0.7,0,1.1
			c-0.3,0.4-0.7,0.8-1.4,0.4c-0.3-0.2-0.7-0.7-0.2-1.5c0,0,0,0,0.1,0l0.6,0.3c0,0,0,0,0,0.1c-0.1,0.2-0.1,0.3,0,0.4h0.1
			c0.1-0.1,0-0.4-0.2-0.8c-0.1-0.3-0.1-0.7,0.1-1.1c0.3-0.5,0.8-0.6,1.3-0.3c0.6,0.4,0.6,1,0.3,1.5h-0.1L118.2,22.2z"/>
		<path class="st1" d="M119.2,22.4c0.3-0.5,0.8-0.6,1.4-0.3c0.5,0.3,0.7,0.9,0.4,1.4l-0.9,1.5c-0.3,0.5-0.8,0.6-1.4,0.3
			c-0.5-0.3-0.7-0.9-0.4-1.3L119.2,22.4z M119.2,24.3c0,0.1,0,0.1,0,0.2s0.1,0,0.1-0.1l0.7-1.2c0-0.1,0-0.1,0-0.2
			c-0.1,0-0.1,0-0.1,0.1L119.2,24.3z"/>
		<path class="st1" d="M122.4,27.6C122.4,27.6,122.3,27.6,122.4,27.6l-0.8-0.4v-0.1l1.3-2c0-0.1,0-0.1,0-0.2c0,0-0.1,0-0.1,0.1
			l-1.3,2c0,0,0,0-0.1,0l-0.7-0.5c0,0,0,0,0-0.1l1.4-2c0-0.1,0-0.1,0-0.2H122l-1.4,2c0,0,0,0-0.1,0l-0.7-0.5c0,0,0,0,0-0.1l1.9-2.9
			c0,0,0,0,0.1,0l0.7,0.4c0,0-0.1,0.3,0,0.3c0,0,0,0,0.1,0s0.3,0,0.5,0.1s0.2,0.3,0.3,0.4c0,0.1,0,0.1,0,0.1s0,0,0.1,0
			c0.2,0,0.3,0,0.5,0.1c0.3,0.2,0.3,0.5,0.1,0.8L122.4,27.6z"/>
		<path class="st1" d="M124,25.6c0.4-0.6,1-0.5,1.4-0.2c0.5,0.4,0.6,1,0.2,1.5l-0.2,0.3h-0.1l-0.8-0.6c0,0,0,0-0.1,0l-0.6,0.8
			c-0.1,0.1,0,0.1,0,0.2c0,0,0.1,0,0.2,0l0.2-0.3c0,0,0,0,0.1,0l0.6,0.5v0.1l-0.2,0.3c-0.4,0.6-1,0.5-1.5,0.2
			c-0.5-0.4-0.5-1-0.1-1.5L124,25.6z M124.7,26.3C124.7,26.3,124.7,26.4,124.7,26.3c0.1,0.1,0.1,0.1,0.2,0.1
			c0.2-0.3,0.2-0.3,0.2-0.4H125L124.7,26.3z"/>
		<path class="st1" d="M126.4,27.4C126.5,27.4,126.5,27.4,126.4,27.4c-0.1-0.1-0.1-0.1-0.1-0.2l0.5-0.7l0,0c0.1,0.1,0.1,0.1,0.1,0.1
			l0.3-0.4c0,0,0,0,0.1,0l0.7,0.5c0,0,0,0,0,0.1l-0.3,0.4v0.1c0.1,0.1,0.2,0.1,0.1,0.2l-0.5,0.7c0,0,0,0-0.1,0
			c-0.1-0.1-0.2-0.1-0.2-0.1l-1,1.2c0,0,0,0,0,0.1c0.2,0.1,0.2,0.1,0.2,0.2c-0.2,0.3-0.6,0.7-1.1,0.4c-0.3-0.2-0.4-0.6,0.1-1.1
			L126.4,27.4z"/>
		<path class="st1" d="M128.1,27.5L128.1,27.5l0.7,0.5c0,0,0,0,0,0.1l-0.5,0.8c0,0,0,0,0,0.1l0,0l0.7-0.6l0,0l0.6,0.5l0,0l-3.5,2.9
			c0,0,0,0-0.1,0l-0.6-0.5c0,0,0,0,0-0.1l1.2-1c0,0,0,0,0.1-0.1L128.1,27.5z"/>
		<path class="st1" d="M130.5,29.5v0.2c0,0,0,0,0.1,0s0.2,0.1,0.3,0.2c0.2,0.2,0.3,0.6-0.3,1.3l-0.8,0.9c-0.6,0.7-1,0.6-1.3,0.4
			c-0.1-0.1-0.2-0.2-0.2-0.3v-0.1l0,0l-0.6,0.7h-0.1l-0.6-0.5v-0.1l2.9-3.3h0.1L130.5,29.5z M128.9,31.4c-0.1,0.1-0.1,0.1,0,0.2h0.1
			l1-1.1c0,0,0.1-0.1,0-0.1c0,0,0,0-0.1,0c0,0-0.1,0-0.1,0.1L128.9,31.4z"/>
		<path class="st1" d="M130.9,31.1c0.5-0.5,1.1-0.3,1.4,0c0.5,0.5,0.4,1.1,0,1.5l-0.2,0.3H132l-0.7-0.7c0,0,0,0-0.1,0l-0.6,0.7
			c-0.1,0.1-0.1,0.1,0,0.2c0,0,0.1,0,0.2,0l0.2-0.3c0,0,0,0,0.1,0l0.5,0.6v0.1l-0.3,0.3c-0.5,0.6-1.1,0.4-1.5,0
			c-0.5-0.4-0.4-1,0-1.5L130.9,31.1z M131.5,32L131.5,32c0.1,0.1,0.1,0.2,0.1,0.1c0.3-0.3,0.3-0.3,0.2-0.4c0,0-0.1,0-0.2,0L131.5,32
			z"/>
		<path class="st1" d="M134.4,31.8C134.5,31.8,134.5,31.8,134.4,31.8l0.7,0.6v0.1l-0.8,0.8c0,0,0,0,0,0.1c0,0,0,0,0.1,0
			s0.3,0.1,0.4,0.2c0.2,0.2,0.3,0.5,0,0.8l-2.1,2.1c0,0,0,0-0.1,0l-0.6-0.6c0,0,0,0,0-0.1l1.8-1.7c0.1-0.1,0.1-0.1,0-0.2
			s-0.1,0-0.2,0l-1.8,1.7c0,0,0,0-0.1,0l-0.6-0.6v-0.1L134.4,31.8z"/>
		<path class="st1" d="M134.7,34.8c0.5-0.5,1.1-0.3,1.4,0.1c0.5,0.5,0.3,1.1-0.1,1.5l-0.3,0.2h-0.1l-0.7-0.7c0,0,0,0-0.1,0l-0.7,0.6
			c-0.1,0.1-0.1,0.1,0,0.2c0,0,0.1,0,0.2,0l0.3-0.2c0,0,0,0,0.1,0l0.5,0.6v0.1l-0.3,0.3c-0.6,0.5-1.1,0.3-1.5-0.1
			c-0.4-0.5-0.3-1,0.2-1.5L134.7,34.8z M135.2,35.7L135.2,35.7c0.1,0.1,0.1,0.2,0.1,0.1c0.3-0.3,0.3-0.3,0.2-0.4c0,0-0.1,0-0.2,0
			L135.2,35.7z"/>
		<path class="st1" d="M137,35.9L137,35.9l0.6,0.6l-0.1,0.2c0,0,0,0,0.1,0s0.2,0,0.4,0.2c0,0,0,0,0,0.1l-0.7,0.6c0,0,0,0-0.1,0
			c-0.2-0.2-0.4-0.2-0.8,0.1l-1.5,1.3h-0.1l-0.6-0.7c0,0,0,0,0-0.1L137,35.9z"/>
		<path class="st1" d="M137.4,37.8c0.5-0.4,1.1-0.2,1.4,0.2c0.4,0.5,0.3,1.2-0.2,1.5l-0.3,0.2h-0.1l-0.6-0.8c0,0,0,0-0.1,0l-0.7,0.6
			c-0.1,0.1-0.1,0.1,0,0.2c0,0,0.1,0.1,0.2,0l0.3-0.2c0,0,0,0,0.1,0l0.5,0.6v0.1l-0.3,0.2c-0.6,0.5-1.1,0.2-1.5-0.2
			c-0.4-0.5-0.3-1.1,0.2-1.5L137.4,37.8z M137.8,38.7L137.8,38.7c0.1,0.2,0.1,0.2,0.1,0.1c0.3-0.2,0.3-0.3,0.3-0.3s-0.1,0-0.2,0
			L137.8,38.7z"/>
		<path class="st1" d="M144.3,118.6c0,0,0,0,0.3,0.1c0.4,0.2,0.6,0.8,0.3,1.3c-0.3,0.6-0.9,0.7-1.3,0.4l-1.4-0.8c0,0,0,0-0.1,0.1
			c0,0,0,0-0.1,0l-0.3-0.2c-0.3-0.2-0.4-0.5-0.2-0.8c0.1-0.2,0.3-0.3,0.4-0.3c0.1,0,0.1,0,0.1,0s0,0,0-0.1s-0.1-0.3,0-0.5
			s0.5-0.4,1-0.1l0.4,0.2c0.4,0.2,0.5,0.6,0.4,1c-0.1,0.5,0,0.5,0.2,0.6c0.1,0,0.1,0,0.2,0c0-0.1,0-0.1-0.2-0.2c0,0,0,0,0-0.1
			L144.3,118.6z M143.1,119.1L143.1,119.1c0.1,0,0.1-0.2,0-0.2l-0.4-0.2c-0.1,0-0.1,0-0.1,0v0.1L143.1,119.1z"/>
		<path class="st1" d="M141.1,119.4L141.1,119.4l3,1.9c0,0,0,0,0,0.1l-0.4,0.6c0,0-0.3-0.1-0.3,0c0,0,0,0,0,0.1
			c0.1,0.2,0.1,0.3-0.1,0.5c-0.2,0.2-0.5,0.4-0.9,0.1l-2.5-1.6l0,0l0.4-0.7c0,0,0,0,0.1,0l2.1,1.3c0.1,0,0.1,0,0.2,0v-0.1l-2.1-1.3
			c0,0,0,0,0-0.1L141.1,119.4z"/>
		<path class="st1" d="M139.3,122.2h0.2c0,0,0,0,0-0.1s0-0.2,0.1-0.3c0.2-0.2,0.5-0.4,1.3,0.2l1,0.7c0.7,0.5,0.7,1,0.6,1.2
			c-0.1,0.1-0.2,0.2-0.3,0.2h-0.1l0,0l0.9,0.6v0.1l-0.4,0.6c0,0,0,0-0.1,0l-3.7-2.5v-0.1L139.3,122.2z M141.4,123.5
			c0.1,0.1,0.2,0,0.2,0v-0.1l-1.2-0.9c0,0-0.1-0.1-0.1,0c0,0,0,0,0,0.1c0,0,0,0.1,0.1,0.1L141.4,123.5z"/>
		<path class="st1" d="M139.5,125.8C139.5,125.8,139.6,125.8,139.5,125.8c0.2,0.1,0.3,0.1,0.4,0.1v-0.1c-0.1-0.1-0.4,0-0.8,0
			c-0.5,0.1-0.8,0.1-1.1-0.2c-0.4-0.3-0.7-0.8-0.2-1.4c0.2-0.3,0.7-0.6,1.5,0c0,0,0,0,0,0.1l-0.4,0.5c0,0,0,0-0.1,0
			c-0.2-0.1-0.3-0.1-0.4-0.1v0.1c0.1,0.1,0.4,0,0.9-0.1c0.3-0.1,0.7-0.1,1.1,0.2c0.4,0.3,0.5,0.9,0.2,1.3c-0.4,0.6-1.1,0.5-1.5,0.1
			v-0.1L139.5,125.8z"/>
		<path class="st1" d="M139.2,126.8c0.4,0.3,0.5,0.9,0.1,1.4c-0.4,0.5-0.9,0.6-1.4,0.2l-1.3-1.1c-0.4-0.3-0.5-0.9-0.1-1.4
			s0.9-0.6,1.4-0.2L139.2,126.8z M137.4,126.5c-0.1,0-0.1-0.1-0.2,0c0,0.1,0,0.1,0,0.1l1.1,0.9c0.1,0,0.1,0,0.2,0c0-0.1,0-0.1,0-0.2
			L137.4,126.5z"/>
		<path class="st1" d="M133.7,129.2L133.7,129.2l0.5-0.7h0.1l1.8,1.6c0.1,0.1,0.1,0,0.2,0c0,0,0-0.1,0-0.2l-1.8-1.6v-0.1l0.5-0.6
			c0,0,0,0,0.1,0l1.8,1.6c0.1,0.1,0.1,0,0.2,0c0,0,0-0.1,0-0.2l-1.9-1.6c0,0,0,0,0-0.1l0.5-0.6c0,0,0,0,0.1,0l2.6,2.3c0,0,0,0,0,0.1
			l-0.5,0.6c0,0-0.2-0.1-0.3-0.1c0,0,0,0,0,0.1s0,0.3-0.1,0.5s-0.3,0.2-0.5,0.2c-0.1,0-0.1,0-0.1,0s0,0,0,0.1c0,0.2,0,0.3-0.2,0.5
			s-0.6,0.2-0.8,0L133.7,129.2z"/>
		<path class="st1" d="M135.5,131.1c0.5,0.5,0.3,1.1,0,1.4c-0.5,0.5-1.1,0.4-1.5,0l-0.3-0.2v-0.1l0.7-0.7c0,0,0,0,0-0.1l-0.7-0.6
			c-0.1-0.1-0.1-0.1-0.2,0c0,0,0,0.1,0,0.2l0.3,0.3c0,0,0,0,0,0.1l-0.6,0.5h-0.1l-0.3-0.3c-0.6-0.5-0.4-1.1,0-1.5
			c0.4-0.5,1-0.4,1.5,0.1L135.5,131.1z M134.6,131.7L134.6,131.7c-0.1,0.1-0.2,0.1-0.1,0.1c0.3,0.3,0.3,0.3,0.4,0.2c0,0,0-0.1,0-0.2
			L134.6,131.7z"/>
		<path class="st1" d="M134.7,134.6C134.8,134.6,134.8,134.6,134.7,134.6l-0.6,0.7H134l-0.8-0.8l0,0c0,0,0,0,0,0.1s-0.1,0.3-0.2,0.4
			c-0.2,0.2-0.5,0.3-0.8,0l-2.1-2.1c0,0,0,0,0-0.1l0.6-0.6c0,0,0,0,0.1,0l1.7,1.8c0.1,0.1,0.1,0.1,0.2,0s0-0.1,0-0.2L131,132
			c0,0,0,0,0-0.1l0.6-0.6h0.1L134.7,134.6z"/>
		<path class="st1" d="M131.8,134.8c0.5,0.5,0.2,1.1-0.1,1.4c-0.5,0.5-1.1,0.3-1.5-0.1l-0.2-0.3v-0.1l0.7-0.7c0,0,0,0,0-0.1
			l-0.6-0.7c-0.1-0.1-0.1-0.1-0.2,0c0,0,0,0.1,0,0.2l0.2,0.3c0,0,0,0,0,0.1l-0.6,0.5h-0.1l-0.3-0.3c-0.5-0.6-0.3-1.1,0.1-1.5
			c0.5-0.4,1-0.3,1.5,0.2L131.8,134.8z M130.9,135.4C130.9,135.3,130.9,135.4,130.9,135.4c-0.1,0.1-0.2,0.1-0.1,0.1
			c0.3,0.3,0.3,0.3,0.4,0.2c0,0,0-0.1,0-0.2L130.9,135.4z"/>
		<path class="st1" d="M130.6,137.1C130.6,137.1,130.6,137.2,130.6,137.1l-0.6,0.6l-0.2-0.1c0,0,0,0,0,0.1s0,0.2-0.2,0.4
			c0,0,0,0-0.1,0l-0.6-0.7c0,0,0,0,0-0.1c0.2-0.2,0.2-0.4-0.1-0.8l-1.3-1.5v-0.1l0.7-0.6c0,0,0,0,0.1,0L130.6,137.1z"/>
		<path class="st1" d="M128.8,137.5c0.4,0.5,0.2,1.1-0.2,1.4c-0.5,0.4-1.2,0.3-1.5-0.2l-0.2-0.3v-0.1l0.8-0.6c0,0,0,0,0-0.1
			l-0.6-0.7c-0.1-0.1-0.1-0.1-0.2,0c0,0-0.1,0.1,0,0.2l0.2,0.3c0,0,0,0,0,0.1l-0.6,0.5h-0.1l-0.2-0.3c-0.5-0.6-0.2-1.1,0.2-1.4
			c0.5-0.4,1.1-0.3,1.5,0.2L128.8,137.5z M127.9,138C127.9,137.9,127.8,137.9,127.9,138c-0.2,0.1-0.2,0.1-0.1,0.1
			c0.2,0.3,0.3,0.3,0.3,0.3s0-0.1,0-0.2L127.9,138z"/>
		<path class="st1" d="M55.1,147.7c0,0,0,0-0.1,0.3c-0.2,0.4-0.7,0.7-1.3,0.4s-0.8-0.8-0.6-1.2l0.7-1.5c0,0,0-0.1-0.1-0.1
			c0,0,0,0,0-0.1l0.2-0.3c0.1-0.3,0.5-0.5,0.8-0.3c0.3,0.1,0.3,0.2,0.3,0.4c0,0.1,0,0.1,0,0.1s0,0,0.1,0c0.1-0.1,0.3-0.1,0.5,0
			s0.5,0.5,0.2,1l-0.2,0.4c-0.2,0.4-0.6,0.5-0.9,0.5c-0.5,0-0.5,0-0.6,0.2c0,0.1,0,0.1,0,0.2c0.1,0,0.1,0,0.2-0.2c0,0,0,0,0.1,0
			L55.1,147.7z M54.5,146.5C54.5,146.6,54.5,146.6,54.5,146.5c0,0.1,0.2,0.1,0.2,0l0.2-0.4c0-0.1,0-0.1,0-0.1s-0.1,0-0.1,0.1
			L54.5,146.5z"/>
		<path class="st1" d="M54,144.6C54.1,144.6,54.1,144.7,54,144.6l-1.5,3.2c0,0,0,0-0.1,0l-0.7-0.3v-0.3c0,0,0,0-0.1,0
			c-0.2,0.1-0.3,0.1-0.5,0c-0.3-0.1-0.4-0.5-0.2-0.8l1.3-2.6l0,0l0.7,0.4c0,0,0,0,0,0.1l-1.1,2.2c0,0.1,0,0.1,0,0.1s0.1,0,0.1-0.1
			l1.1-2.2c0,0,0,0,0.1,0L54,144.6z"/>
		<path class="st1" d="M51.1,143.1v0.2c0,0,0,0,0.1,0s0.2,0,0.4,0.1c0.3,0.1,0.5,0.5,0,1.4l-0.6,1.1c-0.4,0.8-0.9,0.8-1.1,0.7
			c-0.1-0.1-0.2-0.2-0.2-0.3v-0.1l0,0l-0.5,0.9c0,0,0,0-0.1,0l-0.7-0.4c0,0,0,0,0-0.1l2.1-3.9h0.1L51.1,143.1z M50,145.3
			c0,0.1,0,0.2,0,0.2S50.1,145.5,50,145.3l0.8-1.2c0,0,0.1-0.1,0-0.1c0,0,0,0-0.1,0c0,0-0.1,0-0.1,0.1L50,145.3z"/>
		<path class="st1" d="M47,143.4C47,143.4,47,143.5,47,143.4c-0.1,0.2-0.1,0.3,0,0.4h0.1c0.1-0.1,0-0.4-0.1-0.8
			c-0.1-0.4-0.1-0.7,0.1-1.1c0.3-0.4,0.7-0.7,1.4-0.4c0.3,0.2,0.7,0.7,0.2,1.5c0,0,0,0-0.1,0l-0.6-0.3c0,0,0,0,0-0.1
			c0.1-0.2,0.1-0.3,0-0.4h-0.1c-0.1,0.1,0,0.4,0.1,0.8c0.1,0.3,0.1,0.7-0.1,1.1c-0.3,0.5-0.8,0.6-1.3,0.3c-0.6-0.4-0.6-1-0.3-1.5
			h0.1L47,143.4z"/>
		<path class="st1" d="M46,143.2c-0.3,0.5-0.9,0.6-1.4,0.2c-0.5-0.3-0.7-0.9-0.3-1.4l0.9-1.4c0.3-0.5,0.9-0.6,1.4-0.2
			c0.5,0.3,0.7,0.9,0.4,1.3L46,143.2z M46.1,141.4c0-0.1,0-0.1,0-0.2c-0.1,0-0.1,0-0.1,0l-0.8,1.2c0,0.1,0,0.1,0,0.2
			c0.1,0,0.1,0,0.1,0L46.1,141.4z"/>
		<path class="st1" d="M43,138L43,138l0.7,0.4v0.1l-1.4,2c-0.1,0.1,0,0.1,0,0.2c0,0,0.1,0,0.2,0l1.4-2c0,0,0,0,0.1,0l0.7,0.5
			c0,0,0,0,0,0.1l-1.4,2c-0.1,0.1,0,0.1,0,0.2h0.1l1.4-2c0,0,0,0,0.1,0l0.7,0.5c0,0,0,0,0,0.1l-2,2.9c0,0,0,0-0.1,0l-0.6-0.5
			c0,0,0.1-0.3,0-0.3c0,0,0,0-0.1,0s-0.3,0-0.5-0.1s-0.2-0.3-0.2-0.4c0-0.1,0-0.1,0-0.1s0,0-0.1,0c-0.2,0-0.3,0-0.5-0.1
			c-0.2-0.2-0.3-0.6-0.1-0.8L43,138z"/>
		<path class="st1" d="M41.3,139.9c-0.4,0.6-1,0.4-1.4,0.1c-0.5-0.4-0.5-1.1-0.2-1.5l0.2-0.3H40l0.8,0.6c0,0,0,0,0.1,0l0.6-0.7
			c0.1-0.1,0-0.1,0-0.2c0,0-0.1,0-0.2,0l-0.2,0.3c0,0,0,0-0.1,0l-0.6-0.5v-0.1l0.2-0.3c0.5-0.6,1-0.5,1.5-0.1s0.5,1,0.1,1.5
			L41.3,139.9z M40.6,139.2C40.6,139.1,40.6,139.1,40.6,139.2c-0.1-0.1-0.1-0.1-0.2-0.1c-0.2,0.3-0.3,0.3-0.2,0.4h0.1L40.6,139.2z"
			/>
		<path class="st1" d="M37.7,139.5C37.7,139.6,37.7,139.6,37.7,139.5L37,139v-0.1l0.7-0.8c0,0,0,0,0-0.1c0,0,0,0-0.1,0
			s-0.3,0-0.4-0.1c-0.2-0.2-0.3-0.5,0-0.8l1.9-2.3c0,0,0,0,0.1,0l0.6,0.5c0,0,0,0,0,0.1l-1.6,1.9c-0.1,0.1,0,0.1,0,0.2
			c0,0,0.1,0,0.2,0l1.6-1.9c0,0,0,0,0.1,0l0.7,0.5v0.1L37.7,139.5z"/>
		<path class="st1" d="M37.2,136.6c-0.5,0.5-1.1,0.4-1.4,0c-0.5-0.5-0.4-1.1-0.1-1.5l0.2-0.3H36l0.7,0.7c0,0,0,0,0.1,0l0.6-0.7
			c0.1-0.1,0.1-0.1,0-0.2c0,0-0.1,0-0.2,0l-0.2,0.3c0,0,0,0-0.1,0l-0.5-0.5v-0.1l0.3-0.3c0.5-0.6,1.1-0.4,1.5,0c0.5,0.4,0.4,1,0,1.5
			L37.2,136.6z M36.6,135.8L36.6,135.8c-0.1-0.1-0.1-0.1-0.1-0.1c-0.3,0.3-0.3,0.3-0.2,0.4c0,0,0.1,0,0.2,0L36.6,135.8z"/>
		<path class="st1" d="M34.8,135.7L34.8,135.7l-0.7-0.6l0.1-0.2c0,0,0,0-0.1,0c-0.1,0.1-0.2,0-0.4-0.2c0,0,0,0,0-0.1l0.6-0.6
			c0,0,0,0,0.1,0c0.2,0.2,0.4,0.2,0.8-0.2l1.3-1.4h0.1l0.6,0.6c0,0,0,0,0,0.1L34.8,135.7z"/>
		<path class="st1" d="M34.3,133.9c-0.5,0.5-1.1,0.3-1.4,0c-0.5-0.5-0.4-1.1,0-1.5l0.3-0.3h0.1l0.7,0.7c0,0,0,0,0.1,0l0.7-0.7
			c0.1-0.1,0.1-0.1,0-0.2c0,0-0.1,0-0.2,0l-0.3,0.3c0,0,0,0-0.1,0l-0.5-0.6v-0.1l0.3-0.3c0.5-0.5,1.1-0.3,1.5,0.1
			c0.5,0.5,0.4,1-0.1,1.5L34.3,133.9z M33.7,133.1C33.7,133.1,33.7,133,33.7,133.1c-0.1-0.1-0.1-0.2-0.1-0.1
			c-0.3,0.3-0.3,0.3-0.2,0.4c0,0,0.1,0,0.2,0L33.7,133.1z"/>
		<path class="st1" d="M32.1,131.7C32.1,131.8,32.1,131.8,32.1,131.7c0.1,0.1,0.1,0.2,0.1,0.2l-0.6,0.6l0,0
			c-0.1-0.1-0.1-0.1-0.1-0.1l-0.4,0.4c0,0,0,0-0.1,0l-0.6-0.6v-0.1l0.4-0.3v-0.1c-0.1-0.1-0.1-0.1-0.1-0.2l0.6-0.6c0,0,0,0,0.1,0
			c0.1,0.1,0.1,0.2,0.2,0.1l1.2-1.1c0,0,0,0,0-0.1c-0.1-0.2-0.2-0.2-0.1-0.2c0.3-0.2,0.7-0.6,1.1-0.2c0.2,0.3,0.3,0.6-0.3,1.1
			L32.1,131.7z"/>
		<path class="st1" d="M31.1,130.7c-0.4,0.4-1,0.3-1.4-0.2s-0.4-1,0-1.4L31,128c0.4-0.4,1-0.3,1.4,0.2s0.4,1,0,1.4L31.1,130.7z
			 M31.7,129c0.1,0,0.1-0.1,0-0.2c0,0-0.1,0-0.2,0l-1.1,0.9c0,0-0.1,0.1,0,0.2c0,0,0.1,0,0.2,0L31.7,129z"/>
		<path class="st1" d="M29.6,129c-0.4,0.3-1,0.3-1.4-0.2s-0.4-1,0.1-1.4l1.3-1.1c0.4-0.4,1-0.3,1.4,0.2s0.4,1-0.1,1.4L29.6,129z
			 M30.3,127.3c0.1,0,0.1-0.1,0-0.2c0-0.1-0.1,0-0.2,0L29,128c-0.1,0-0.1,0.1,0,0.2c0,0.1,0.1,0,0.2,0L30.3,127.3z"/>
		<path class="st1" d="M26.8,128.4C26.8,128.4,26.7,128.4,26.8,128.4l-0.7-0.8v-0.1l2.7-1.9h0.1l0.4,0.6v0.1L26.8,128.4z
			 M29.6,124.9C29.7,124.9,29.7,124.9,29.6,124.9l0.5,0.6v0.1l-0.6,0.5h-0.1l-0.5-0.6v-0.1L29.6,124.9z"/>
	</g>
</g>
<g id="large_x5F_type">
	<g id="red_x5F_white">
		<path class="st2" d="M24.8,76.2c-0.2-1-0.2-1.2-1-1.3c-0.3,0-0.5-0.2-0.6-0.6c-0.2-0.8,0.5-1,0.6-1l5.3-1.2l3.8,17
			c0.2,1,0.2,1.2,1,1.3c0.3,0,0.5,0.2,0.6,0.6c0.2,0.8-0.5,1-0.6,1l-5.7,1.3c-0.1,0-0.8,0.1-0.9-0.7c-0.1-0.4,0-0.7,0.3-0.8
			c0.6-0.5,0.6-0.6,0.4-1.6L24.8,76.2z M29.9,71.9H30c1.3-0.3,2.7-0.6,4-0.1c1.5,0.6,2.6,1.9,3,3.9c0.7,3.1-0.5,4.7-2.4,5.8v0.1
			c1.9,0,3.7,0.3,4.4,3.1l0.5,2.4c0.1,0.2,0.1,0.8,0.4,0.7c0.3-0.1,0.2-0.9,0.7-1c0.3-0.1,0.7,0.3,0.8,0.6c0.2,0.8-0.3,1.9-0.6,2.5
			c-0.5,0.9-1.2,1.3-2.1,1.5c-0.9,0.2-1.7,0.1-2.5-0.6c-0.9-0.8-1.3-2-1.6-3.2l-0.4-1.8c-0.3-1.2-0.6-2.7-1.9-2.6l-0.4-1.6
			c1.1-0.4,1-1.3,0.7-2.6L32,75.7c-0.3-1.3-0.7-1.9-1.8-2.2L29.9,71.9z"/>
		<path class="st2" d="M38.8,69.9l5.3-1.2l4.4,20L43.3,90c-0.1,0-0.8,0.1-0.9-0.7c-0.1-0.4,0-0.7,0.3-0.8c0.6-0.5,0.6-0.6,0.4-1.6
			l-3.1-14c-0.2-1-0.2-1.2-1-1.3c-0.3,0-0.5-0.2-0.6-0.6C38.1,70.2,38.8,70,38.8,69.9z M45,68.6l4.5-1l1.2,5.4
			c0,0.1,0.1,0.6-0.5,0.8c-0.3,0.1-0.5-0.2-0.7-0.5c-1-2.1-2.3-3.1-4.2-3.1L45,68.6z M47,77.5c0.8-0.5,0.9-1.6,0.9-2.7
			c0-0.5,0-0.9,0.4-1c0.6-0.1,0.7,0.8,0.8,1.1l1.3,5.8c0,0.2,0.4,1.2-0.3,1.3c-0.4,0.1-0.6-0.3-0.8-0.7c-0.4-1-1-1.9-1.9-2L47,77.5z
			 M49.1,87c1.6-0.6,2.5-2.4,2.6-4.6c0.1-0.4,0.1-0.9,0.4-1c0.6-0.1,0.8,0.7,0.8,0.8l1.2,5.4l-4.6,1L49.1,87z"/>
		<path class="st2" d="M61.6,85.9L56.5,87c-0.4,0.1-1,0.2-1.1-0.6c-0.1-0.4,0-0.7,0.3-0.8c0.6-0.5,0.6-0.6,0.4-1.6L53,70
			c-0.1-0.4-0.2-1.1-0.6-1.2c-0.4-0.1-0.8-0.1-1-0.8c-0.2-0.7,0.3-0.9,0.7-1l5.1-1.1L61.6,85.9z M58,65.7c3.4-0.8,7,1.7,8.7,8.6
			c1.6,6.2-1,10.7-4.3,11.5l-0.3-1.6c1.2-0.5,0.9-2,0.7-3l-2.5-11.4c-0.2-1-0.6-2.5-1.9-2.5L58,65.7z"/>
		<path class="st1" d="M76.8,82.5L74.4,83L67,66.4c-0.2-0.5-0.3-0.7-0.7-0.8c-0.3-0.1-0.6-0.2-0.7-0.7c-0.2-0.9,0.6-1.1,1.1-1.2
			l4.7-1c0.4-0.1,1.1-0.3,1.3,0.5c0.2,0.9-0.8,0.9-0.5,1.9c0.1,0.2,0.1,0.4,0.2,0.6l4.2,9.4L76.8,82.5z M77,61.5l5.6,12.8l0.2,6.9
			l-2.4,0.5L75,69.4L74.8,62L77,61.5z M81.3,69.1l-0.2-4.3c0-0.4,0-0.7-0.1-1.1c-0.3-1.4-1.5-0.9-1.7-1.9c-0.1-0.6,0.3-0.8,0.6-0.9
			l2.6-0.6c0.4-0.1,0.8-0.1,1,0.6c0.1,0.4,0,0.5-0.3,0.8c-0.9,0.8-0.9,1.8-0.9,3.2l0.2,7.1l0,0L81.3,69.1z"/>
		<path class="st1" d="M94.6,75.4c0.2,1,0.2,1.2,1,1.3c0.3,0,0.5,0.2,0.6,0.6c0.2,0.8-0.5,1-0.6,1l-5.7,1.3c-0.1,0-0.8,0.1-0.9-0.7
			c-0.1-0.4,0-0.7,0.3-0.8c0.6-0.5,0.6-0.6,0.4-1.6l-3.1-14c-0.2-1-0.2-1.2-1-1.3c-0.3,0-0.5-0.2-0.6-0.6c-0.2-0.8,0.5-1,0.6-1
			l5.7-1.3c0.1,0,0.8-0.1,0.9,0.7c0.1,0.4,0,0.7-0.3,0.8c-0.6,0.5-0.6,0.6-0.4,1.6L94.6,75.4z M95.8,68.5L94,68.9l-0.3-1.6l1.8-0.4
			l-1.3-6.1c-0.2-1-0.2-1.2-1-1.3c-0.3,0-0.5-0.2-0.6-0.6c-0.2-0.8,0.5-1,0.6-1l5.7-1.3c0.1,0,0.8-0.1,0.9,0.7
			c0.1,0.4,0,0.7-0.3,0.8c-0.6,0.5-0.6,0.6-0.4,1.6l3.1,14c0.2,1,0.2,1.2,1,1.3c0.3,0,0.5,0.3,0.6,0.6c0.2,0.8-0.5,1-0.6,1l-5.7,1.3
			c-0.1,0-0.8,0.1-0.9-0.7c-0.1-0.4,0-0.7,0.3-0.8c0.6-0.5,0.6-0.6,0.4-1.6L95.8,68.5z"/>
		<path class="st1" d="M111.4,71.7c0.2,1,0.2,1.2,1,1.3c0.3,0,0.5,0.2,0.6,0.6c0.2,0.8-0.5,1-0.6,1l-5.7,1.3c-0.1,0-0.8,0.1-0.9-0.7
			c-0.1-0.4,0-0.7,0.3-0.8c0.6-0.5,0.6-0.6,0.4-1.6l-3.1-14c-0.2-1-0.2-1.2-1-1.3c-0.3,0-0.5-0.2-0.6-0.6c-0.2-0.8,0.5-1,0.6-1
			l5.7-1.3c0.1,0,0.8-0.1,0.9,0.7c0.1,0.4,0,0.7-0.3,0.8c-0.6,0.5-0.6,0.6-0.4,1.6L111.4,71.7z"/>
		<path class="st1" d="M110.1,54.1l2.9-0.6l0.3,1.6c-0.8,1.2-0.7,3.1-0.6,4.5c0.1,0.6,0.1,1.3-0.4,1.4c-0.6,0.1-0.8-0.5-0.8-0.6
			L110.1,54.1z M113.9,53.3l4.9-1.1l3.8,17c0.2,1,0.2,1.2,1,1.3c0.3,0,0.5,0.2,0.6,0.6c0.2,0.8-0.5,1-0.6,1l-5.7,1.3
			c-0.1,0-0.8,0.1-0.9-0.7c-0.1-0.4,0-0.7,0.3-0.8c0.6-0.5,0.6-0.6,0.4-1.6L113.9,53.3z M124,57.6c0,0.1,0.1,0.8-0.5,0.9
			c-0.6,0.1-0.8-0.5-1-1.1c-0.5-1.4-1.2-3.1-2.4-3.8l-0.3-1.6l2.9-0.6L124,57.6z"/>
		<path class="st1" d="M124.1,51l5.3-1.2l4.4,20l-5.3,1.2c-0.1,0-0.8,0.1-0.9-0.7c-0.1-0.4,0-0.7,0.3-0.8c0.6-0.5,0.6-0.6,0.4-1.6
			l-3.1-14c-0.2-1-0.2-1.2-1-1.3c-0.3,0-0.5-0.2-0.6-0.6C123.4,51.2,124,51,124.1,51z M130.3,49.7l4.5-1l1.2,5.4
			c0,0.1,0.1,0.6-0.5,0.8c-0.3,0.1-0.5-0.2-0.7-0.5c-1-2.1-2.3-3.1-4.2-3.1L130.3,49.7z M132.3,58.6c0.8-0.5,0.9-1.6,0.9-2.7
			c0-0.5,0-0.9,0.4-1c0.6-0.1,0.7,0.8,0.8,1.1l1.3,5.8c0,0.2,0.4,1.2-0.3,1.3c-0.4,0.1-0.6-0.3-0.8-0.7c-0.4-1-1-1.9-1.9-2
			L132.3,58.6z M134.4,68.1c1.6-0.6,2.5-2.4,2.6-4.6c0.1-0.4,0.1-0.9,0.4-1c0.6-0.1,0.8,0.7,0.8,0.8l1.2,5.4l-4.6,1L134.4,68.1z"/>
	</g>
	<g id="and_x5F_true">
		<path class="st3" d="M38.3,102.2c-0.1,0.3-0.1,0.4-0.1,0.7c0.1,0.3,0.1,0.4,0.2,0.6l2.5,3.6c0.6,0.8,0.7,0.7,1.2,0.6l0.7,1
			c-2.9,3.3-6.5,0.7-7.1-2.3c-0.4-2.2,0.5-4.2,1.8-5.2L38.3,102.2z M38.1,100.5c-0.6-0.8-1-1.9-1.2-2.9c-0.5-2.4,0.9-4.4,2.5-4.7
			l0.6-0.1l0.3,1.5C40,94.5,39.9,95,40,95.5c0.1,0.5,0.4,0.9,0.6,1.3l6.3,9.2c0.3,0.4,0.5,0.8,0.9,0.9c0.3,0.1,0.4,0.2,0.4,0.5
			c0.1,0.6-0.3,0.7-0.4,0.8L44,109L38.1,100.5z M40.7,92.8c1-0.1,2.1,1.1,2.4,2.4c0.2,1.1,0,2.4-0.6,3.1l-0.7-1
			c0.3-0.6,0.5-1,0.3-1.8c-0.2-0.7-0.6-1.2-1.2-1.4L40.7,92.8z M44.8,101.6c0.1-0.4,0.1-0.8,0-1.2c-0.2-0.8-0.6-1-0.7-1.4
			c-0.1-0.5,0.5-0.9,0.8-1c0.5-0.1,0.8,0.6,1,1.2c0.3,1.3,0,2.3-0.4,3.4L44.8,101.6z"/>
		<path class="st1" d="M45.8,91.2l3.9-0.9l0.5,2.1c-1.1,1.6-1,4.1-0.8,6c0.1,0.8,0.2,1.8-0.6,1.9c-0.8,0.2-1.1-0.7-1.1-0.8
			L45.8,91.2z M50.9,90.1l6.6-1.5l5,22.8c0.3,1.3,0.3,1.5,1.3,1.7c0.4,0.1,0.7,0.3,0.8,0.8c0.2,1-0.6,1.3-0.7,1.3l-7.6,1.7
			c-0.1,0-1,0.1-1.2-0.9c-0.1-0.5,0.1-0.9,0.4-1.1c0.9-0.6,0.8-0.8,0.5-2.1L50.9,90.1z M64.4,95.8c0,0.1,0.1,1.1-0.7,1.2
			c-0.8,0.2-1.1-0.7-1.3-1.5c-0.7-1.8-1.6-4.1-3.3-5.1l-0.5-2.1l3.9-0.9L64.4,95.8z"/>
		<path class="st1" d="M66.3,90.9C66,89.5,66,89.3,65,89.1c-0.4-0.1-0.7-0.3-0.8-0.8c-0.2-1,0.6-1.3,0.7-1.3l7.1-1.6l5,22.8
			c0.3,1.3,0.3,1.5,1.3,1.7c0.4,0.1,0.7,0.3,0.8,0.8c0.2,1-0.6,1.3-0.7,1.3l-7.6,1.7c-0.1,0-1,0.1-1.2-0.9c-0.1-0.5,0.1-0.9,0.4-1.1
			c0.9-0.6,0.8-0.8,0.5-2.1L66.3,90.9z M73.2,85.1L73.2,85.1c1.8-0.4,3.7-0.9,5.5-0.2c2.1,0.8,3.4,2.5,4,5.3c1,4.1-0.7,6.3-3.2,7.8
			v0.1c2.5-0.1,5,0.4,5.9,4.1l0.7,3.1c0.1,0.3,0.1,1.1,0.5,1s0.3-1.2,0.9-1.3c0.3-0.1,0.9,0.4,1,0.9c0.2,1-0.4,2.6-0.8,3.3
			c-0.7,1.2-1.6,1.7-2.7,2c-1.2,0.3-2.3,0.1-3.4-0.8c-1.2-1.1-1.7-2.6-2.1-4.3l-0.5-2.4c-0.4-1.6-0.8-3.6-2.5-3.5L76.1,98
			c1.4-0.5,1.3-1.7,0.9-3.5l-1-4.3c-0.4-1.8-0.9-2.6-2.4-2.9L73.2,85.1z"/>
		<path class="st1" d="M100.7,107.7c-2.1,0.5-3.8,0.8-5.9-0.2c-2.8-1.3-3.4-2.5-3.8-4.3l-3.8-17c-0.3-1.3-0.3-1.5-1.3-1.7
			c-0.4-0.1-0.7-0.3-0.8-0.8c-0.2-1,0.6-1.3,0.7-1.3l7.6-1.7c0.1,0,1-0.1,1.2,0.9c0.1,0.5-0.1,0.9-0.4,1.1c-0.9,0.6-0.8,0.8-0.5,2.1
			l3.8,17.2c0.1,0.4,0.5,3.2,2.7,3.6L100.7,107.7z M100.7,85c-1.4-4.4-2.8-2.6-3.2-4.1c-0.2-1.1,0.9-1.3,1.2-1.3l3.1-0.7
			c0.3-0.1,1.4-0.4,1.6,0.7c0.3,1.5-1.7,0.5-1.1,5.1l3,13.5c1.1,6-1.6,8.8-3.4,9.2l-0.5-2.1c2.2-1.5,2.8-3.6,2.3-6.8L100.7,85z"/>
		<path class="st1" d="M106,77.9l7.1-1.6L119,103l-7.1,1.6c-0.1,0-1,0.1-1.2-0.9c-0.1-0.5,0.1-0.9,0.4-1.1c0.9-0.6,0.8-0.8,0.5-2.1
			l-4.2-18.7c-0.3-1.3-0.3-1.5-1.3-1.7c-0.4-0.1-0.7-0.3-0.8-0.8C105,78.1,105.9,77.9,106,77.9z M114.3,76l6-1.3l1.6,7.3
			c0,0.2,0.2,0.9-0.6,1c-0.5,0.1-0.7-0.2-0.9-0.7c-1.3-2.7-3.1-4.2-5.6-4.2L114.3,76z M117,88c1-0.6,1.2-2.2,1.2-3.6
			c0-0.6,0-1.2,0.6-1.4c0.8-0.2,1,1.1,1,1.4l1.7,7.7c0.1,0.3,0.5,1.5-0.3,1.7c-0.6,0.1-0.9-0.4-1.1-1c-0.5-1.3-1.4-2.6-2.6-2.7
			L117,88z M119.8,100.7c2.1-0.8,3.3-3.2,3.4-6.2c0.1-0.6,0.1-1.2,0.6-1.3c0.9-0.2,1,0.9,1,1l1.6,7.2l-6.2,1.4L119.8,100.7z"/>
	</g>
</g>
<g id="stroke_x5F_badges">
	<g id="dashes" class="st0">
		<ellipse class="st4" cx="83.5" cy="83.4" rx="76.9" ry="76.9"/>
	</g>
	<ellipse id="ring" class="st5" cx="83.5" cy="83.4" rx="74.9" ry="74.9"/>
</g>
</svg>
